<mxfile host="www.draw.io" modified="2019-11-29T08:03:15.550Z" agent="Mozilla/5.0 (Windows NT 10.0; Win64; x64) AppleWebKit/537.36 (KHTML, like Gecko) Chrome/73.0.3683.86 Safari/537.36" etag="XPRbLThHLbxOOGNb58hA" version="12.3.3" type="github" pages="1">
  <diagram id="-yFMah9nlYu9oXamQMR5" name="Page-1">
    <mxGraphModel dx="695" dy="256" grid="1" gridSize="10" guides="1" tooltips="1" connect="1" arrows="1" fold="1" page="1" pageScale="1" pageWidth="850" pageHeight="1100" math="0" shadow="0">
      <root>
        <mxCell id="0"/>
        <mxCell id="1" parent="0"/>
        <mxCell id="srwLFo3CpR1ze2gh4oJ3-36" value="" style="rounded=1;arcSize=10;dashed=1;strokeColor=#000000;fillColor=none;gradientColor=none;dashPattern=8 3 1 3;strokeWidth=2;" parent="1" vertex="1">
          <mxGeometry x="480" y="204" width="140" height="240" as="geometry"/>
        </mxCell>
        <mxCell id="srwLFo3CpR1ze2gh4oJ3-1" value="" style="verticalLabelPosition=bottom;verticalAlign=top;html=1;shape=mxgraph.basic.rect;fillColor2=none;strokeWidth=1;size=20;indent=5;rotation=90;" parent="1" vertex="1">
          <mxGeometry x="70" y="282" width="270" height="30" as="geometry"/>
        </mxCell>
        <mxCell id="srwLFo3CpR1ze2gh4oJ3-2" value="" style="shadow=0;dashed=0;html=1;labelPosition=center;verticalLabelPosition=bottom;verticalAlign=top;align=center;outlineConnect=0;shape=mxgraph.veeam.3d.esx_esxi;" parent="1" vertex="1">
          <mxGeometry x="270" y="172" width="38" height="52" as="geometry"/>
        </mxCell>
        <mxCell id="srwLFo3CpR1ze2gh4oJ3-3" value="" style="verticalLabelPosition=bottom;html=1;verticalAlign=top;align=center;strokeColor=none;fillColor=#00BEF2;shape=mxgraph.azure.virtual_machine;" parent="1" vertex="1">
          <mxGeometry x="360" y="102" width="50" height="40" as="geometry"/>
        </mxCell>
        <mxCell id="srwLFo3CpR1ze2gh4oJ3-4" value="" style="verticalLabelPosition=bottom;html=1;verticalAlign=top;align=center;strokeColor=none;fillColor=#00BEF2;shape=mxgraph.azure.virtual_machine;" parent="1" vertex="1">
          <mxGeometry x="360" y="214" width="50" height="40" as="geometry"/>
        </mxCell>
        <mxCell id="srwLFo3CpR1ze2gh4oJ3-5" value="Management VM&#39;s" style="text;html=1;strokeColor=none;fillColor=none;align=center;verticalAlign=middle;whiteSpace=wrap;rounded=0;rotation=0;" parent="1" vertex="1">
          <mxGeometry x="325" y="89" width="130" height="10" as="geometry"/>
        </mxCell>
        <mxCell id="srwLFo3CpR1ze2gh4oJ3-6" value="Platform Controller" style="text;html=1;strokeColor=none;fillColor=none;align=center;verticalAlign=middle;whiteSpace=wrap;rounded=0;" parent="1" vertex="1">
          <mxGeometry x="268" y="148" width="40" height="20" as="geometry"/>
        </mxCell>
        <mxCell id="srwLFo3CpR1ze2gh4oJ3-7" value="" style="shadow=0;dashed=0;html=1;labelPosition=center;verticalLabelPosition=bottom;verticalAlign=top;align=center;outlineConnect=0;shape=mxgraph.veeam.3d.esx_esxi;" parent="1" vertex="1">
          <mxGeometry x="271" y="380" width="38" height="52" as="geometry"/>
        </mxCell>
        <mxCell id="srwLFo3CpR1ze2gh4oJ3-8" value="" style="verticalLabelPosition=bottom;html=1;verticalAlign=top;align=center;strokeColor=none;fillColor=#00BEF2;shape=mxgraph.azure.virtual_machine;" parent="1" vertex="1">
          <mxGeometry x="360" y="158" width="50" height="40" as="geometry"/>
        </mxCell>
        <mxCell id="srwLFo3CpR1ze2gh4oJ3-9" value="CRG" style="text;html=1;strokeColor=none;fillColor=none;align=center;verticalAlign=middle;whiteSpace=wrap;rounded=0;" parent="1" vertex="1">
          <mxGeometry x="268" y="360" width="40" height="20" as="geometry"/>
        </mxCell>
        <mxCell id="srwLFo3CpR1ze2gh4oJ3-10" value="" style="verticalLabelPosition=bottom;html=1;verticalAlign=top;align=center;strokeColor=none;fillColor=#00BEF2;shape=mxgraph.azure.virtual_machine;" parent="1" vertex="1">
          <mxGeometry x="360" y="342" width="50" height="40" as="geometry"/>
        </mxCell>
        <mxCell id="srwLFo3CpR1ze2gh4oJ3-11" value="" style="verticalLabelPosition=bottom;html=1;verticalAlign=top;align=center;strokeColor=none;fillColor=#00BEF2;shape=mxgraph.azure.virtual_machine;" parent="1" vertex="1">
          <mxGeometry x="360" y="454" width="50" height="40" as="geometry"/>
        </mxCell>
        <mxCell id="srwLFo3CpR1ze2gh4oJ3-12" value="Production VM&#39;s (Customer Configurable)" style="text;html=1;strokeColor=none;fillColor=none;align=center;verticalAlign=middle;whiteSpace=wrap;rounded=0;rotation=0;" parent="1" vertex="1">
          <mxGeometry x="311.5" y="502" width="147" height="24" as="geometry"/>
        </mxCell>
        <mxCell id="srwLFo3CpR1ze2gh4oJ3-13" value="" style="verticalLabelPosition=bottom;html=1;verticalAlign=top;align=center;strokeColor=none;fillColor=#00BEF2;shape=mxgraph.azure.virtual_machine;" parent="1" vertex="1">
          <mxGeometry x="360" y="398" width="50" height="40" as="geometry"/>
        </mxCell>
        <mxCell id="srwLFo3CpR1ze2gh4oJ3-14" value="PowerOne Infra" style="text;html=1;strokeColor=none;fillColor=none;align=center;verticalAlign=middle;whiteSpace=wrap;rounded=0;rotation=-90;" parent="1" vertex="1">
          <mxGeometry x="72" y="283" width="266" height="30" as="geometry"/>
        </mxCell>
        <mxCell id="srwLFo3CpR1ze2gh4oJ3-15" value="" style="endArrow=classic;startArrow=classic;html=1;" parent="1" edge="1">
          <mxGeometry width="50" height="50" relative="1" as="geometry">
            <mxPoint x="219" y="202" as="sourcePoint"/>
            <mxPoint x="270" y="202" as="targetPoint"/>
          </mxGeometry>
        </mxCell>
        <mxCell id="srwLFo3CpR1ze2gh4oJ3-16" value="" style="endArrow=classic;startArrow=classic;html=1;" parent="1" edge="1">
          <mxGeometry width="50" height="50" relative="1" as="geometry">
            <mxPoint x="220" y="402" as="sourcePoint"/>
            <mxPoint x="270.9999999999998" y="402" as="targetPoint"/>
          </mxGeometry>
        </mxCell>
        <mxCell id="srwLFo3CpR1ze2gh4oJ3-17" value="" style="endArrow=none;dashed=1;html=1;" parent="1" edge="1">
          <mxGeometry width="50" height="50" relative="1" as="geometry">
            <mxPoint x="340" y="472" as="sourcePoint"/>
            <mxPoint x="340.0000000000002" y="121" as="targetPoint"/>
          </mxGeometry>
        </mxCell>
        <mxCell id="srwLFo3CpR1ze2gh4oJ3-18" value="" style="endArrow=classic;startArrow=classic;html=1;" parent="1" edge="1">
          <mxGeometry width="50" height="50" relative="1" as="geometry">
            <mxPoint x="340.0000000000002" y="472" as="sourcePoint"/>
            <mxPoint x="360.0000000000002" y="472" as="targetPoint"/>
          </mxGeometry>
        </mxCell>
        <mxCell id="srwLFo3CpR1ze2gh4oJ3-19" value="" style="endArrow=classic;startArrow=classic;html=1;" parent="1" edge="1">
          <mxGeometry width="50" height="50" relative="1" as="geometry">
            <mxPoint x="341.5" y="422" as="sourcePoint"/>
            <mxPoint x="361.5" y="422" as="targetPoint"/>
          </mxGeometry>
        </mxCell>
        <mxCell id="srwLFo3CpR1ze2gh4oJ3-20" value="" style="endArrow=classic;startArrow=classic;html=1;" parent="1" edge="1">
          <mxGeometry width="50" height="50" relative="1" as="geometry">
            <mxPoint x="340.0000000000002" y="362" as="sourcePoint"/>
            <mxPoint x="360.0000000000002" y="362" as="targetPoint"/>
          </mxGeometry>
        </mxCell>
        <mxCell id="srwLFo3CpR1ze2gh4oJ3-21" value="" style="endArrow=classic;startArrow=classic;html=1;" parent="1" edge="1">
          <mxGeometry width="50" height="50" relative="1" as="geometry">
            <mxPoint x="340.0000000000002" y="234" as="sourcePoint"/>
            <mxPoint x="360.0000000000002" y="234" as="targetPoint"/>
          </mxGeometry>
        </mxCell>
        <mxCell id="srwLFo3CpR1ze2gh4oJ3-22" value="" style="endArrow=classic;startArrow=classic;html=1;" parent="1" edge="1">
          <mxGeometry width="50" height="50" relative="1" as="geometry">
            <mxPoint x="340.0000000000002" y="182" as="sourcePoint"/>
            <mxPoint x="360.0000000000002" y="182" as="targetPoint"/>
          </mxGeometry>
        </mxCell>
        <mxCell id="srwLFo3CpR1ze2gh4oJ3-23" value="" style="endArrow=classic;startArrow=classic;html=1;" parent="1" edge="1">
          <mxGeometry width="50" height="50" relative="1" as="geometry">
            <mxPoint x="340.0000000000002" y="122" as="sourcePoint"/>
            <mxPoint x="360.0000000000002" y="122" as="targetPoint"/>
          </mxGeometry>
        </mxCell>
        <mxCell id="srwLFo3CpR1ze2gh4oJ3-24" value="" style="endArrow=classic;startArrow=classic;html=1;" parent="1" edge="1">
          <mxGeometry width="50" height="50" relative="1" as="geometry">
            <mxPoint x="310" y="405.9999999999999" as="sourcePoint"/>
            <mxPoint x="340.0000000000002" y="405.5000000000001" as="targetPoint"/>
          </mxGeometry>
        </mxCell>
        <mxCell id="srwLFo3CpR1ze2gh4oJ3-25" value="" style="endArrow=classic;startArrow=classic;html=1;" parent="1" edge="1">
          <mxGeometry width="50" height="50" relative="1" as="geometry">
            <mxPoint x="308" y="202.5" as="sourcePoint"/>
            <mxPoint x="338" y="202" as="targetPoint"/>
          </mxGeometry>
        </mxCell>
        <mxCell id="srwLFo3CpR1ze2gh4oJ3-28" value="" style="shape=image;verticalLabelPosition=bottom;labelBackgroundColor=#ffffff;verticalAlign=top;aspect=fixed;imageAspect=0;image=data:image/png,iVBORw0KGgoAAAANSUhEUgAAAtAAAAI2CAYAAAB5Sr8DAAAgAElEQVR4Aey9B7QcxZn2/96cg3JGSAQtmAxrZAEmRwNGtsFoSVrgg7XPGmwfR/Ax9vet2XO8/11gbdbGgsWYIILXKCxgwJIQQQiDQYCEAWMZIYKyrnSle3Xz/zx1Vff2zHRPh+meru55SmfO9HRXV731q9HcZ955662ygYGBAWEhARIggRIhUFZWltqR8uM8tVPLgZEACRhGoNIwe2gOCZAACYRKIM2CORuUdawU09l0+JoESIAEwiNAAR0eS7ZEAiRgEAGrmDTIrKKZosdPIV005OyIBEighAhQQJfQZHOoJFAKBLRwLIWxehmjlQfFtBdirEMCJEAC7gQooN0ZsQYJkIDhBKwi0XBTYzVPc6KQjnUa2DkJkEAKCFBAp2ASOQQSKFUCWhCW6viDjltzo5AOSpD3kQAJlDoBCuhSfwdw/CSQMAJa/CXMbCPNtbKkmDZyimgUCZCAoQQooA2dGJpFAiQwTMAq9IbP8ihMAlbGFNNhkmVbJEACaSRAAZ3GWeWYSCAlBKyiLiVDSsQwNHcK6URMF40kARKIgQAFdAzQ2SUJkEB+AlrA5a/Fq1ET0PNAIR01abZPAiSQNAIU0EmbMdpLAikloMVaWob3s5/9TCZPniw9PT1y2223yQsvvJDYoem5oZBO7BTScBIggZAJlHEr75CJsjkSIAFfBLQ483WT4ZVvueUWOfjgg6W8vFyamppkzJgx8sc//lHeeOMN+dd//VfDrfdmHsW0N06sRQIkkE4CFNDpnFeOigSMJpBG0XzRRRfJnDlzpKamRglnPQEjR46UadOmCQRnR0eHfPDBB8ob/dvf/lb+9Kc/6WqJfaaQTuzU0XASIIECCFBAFwCPt5IACXgnkEbRjNH//Oc/l3322Ueqq6ttYWgBbb3Y1dUlbW1t8txzz8nSpUvlkUcesV5O7DHFdGKnjoaTAAn4JEAB7RMYq5MACfgjkEbhfP7558s//MM/SEtLi7iNz05Aa4J9fX2ye/dueeutt+TZZ5+V++67Tz755BN9ObHPFNKJnToaTgIk4JEABbRHUKxGAiTgnYCbqPTeklk1sRhw6tSpUltb69mwfALa2gjCO7Zu3SrLli2Txx9/XJYsWWK9nNhjiunETh0NJwESyEOAAjoPHF4iARLwRyCNwvlzn/ucXHLJJTJixAhXb7MdLa8CWt8Lr/SWLVvknXfekaeeekoWLlwoGzZs0JcT+0whndipo+EkQAI2BCigbaDwFAmQgD8CaRTOyKSx7777Sl1dnT8YWbX9Cmh9OwQnvNIffvihPPPMM/LQQw/Jm2++qS8n+pliOtHTR+NJgAREhAKabwMSIIFABNIomq+77jo56qijZNy4cYG8zXYggwpoa1t60eHy5ctl1apVMm/ePOvlxB5TSCd26mg4CZQ8AQrokn8LEAAJeCeQRtGM0f/qV79Sohkp6MIuYQhobRMEZ3t7u7z33ntq0SHCO1avXq0vJ/qZYjrR00fjSaDkCFBAl9yUc8Ak4J9AGoUzvM3HHXecNDc3h+ZttiMbpoC2tt/Z2Snbtm1TafDgmYaYTkOhkE7DLHIMJJB+AhTQ6Z9jjpAEAhFIo2gGiCi9zXagoxLQui8sOoRXGrscIq/0gw8+yEWHGg6fSYAESCAiAhTQEYFlsySQVAJpFM7F8jbbzXnUAtraJ3JKb968WaXAe/LJJ1VKPOv1pB7TK53UmaPdJJBeAhTQ6Z1bjowEPBNIo2jG4G+//XaZMGGC1NfXe2YRdsViCmhtu06F9/bbbwuE9OLFi+mV1nD4TAIkQAIhEKCADgEimyCBpBJIo3CGt3nmzJnS1NQkVVVVsU9NHAJaDxqeW6TC++CDD9SiQ4R3pGHRIT3Seob5TAIkEBcBCui4yLNfEoiJQBpFM1DefffdMmbMGKmsrIyJrH23cQpoq0U6FR52OkS8NFPhWenwmARIgAT8EaCA9seLtUkgsQTSKJzhbf7sZz8rDQ0NkWbSKGTSTRHQegzw3upUeNigBeEdafBKY3z0TOtZ5jMJkEDUBCigoybM9kkgRgJpFM3Aec8998ioUaOM8zbbTbVpAtpqozUVHjJ4PProo9bLiT2mkE7s1NFwEkgMAQroxEwVDSUB7wTSKJyvvfZaOeWUUyLP2+ydsreaJgtoPQKmwtMk+EwCJEAC3ghQQHvjxFokYDyBNIpmQIe3uaWlRWpra42fAzsDkyCgrXbrVHiIlX7iiSeYCs8Kh8ckQAIksJcABTTfCiSQcAJpFM7XXHONnHrqqYnzNtu9lZImoPUYslPhLVq0SDZu3KgvJ/aZ4R2JnToaTgJGEaCANmo6aAwJeCOQRtF89tlny0UXXSRjx46ViooKbyASUCupAlqjheBEKrx169YJtgx/+OGHuehQw+EzCZBAyRKggC7ZqefAk0YgjaIZc3DTTTfJEUccoUI00jjGpAto6/8TnQoPQnrVqlVMhWeFw2MSIIGSIkABXVLTzcEmkUAaRSW8zV/60pdk/PjxqfI2272/0iSg9fjglUYqvLVr1wpS4S1cuDAVXmmGd+gZ5jMJkIAbAQpoN0K8TgIxEUijcL7xxhvlmGOOkerq6tQLZ/22SaOA1mPDszUV3muvvSb33nuv9XJijymmEzt1NJwEikKAAroomNkJCXgjkEbRrL3N2CUQwrnUStoFtJ5PnQoPm7IgxAPbhm/YsEFfTuwzhXRip46Gk0CkBCigI8XLxknAG4E0CudS9DbbzXapCGjr2HUqvCVLlshLL72Uig1aKKStM8xjEiABCmi+B0ggJgJpFM3wNl966aXS1NRUkt5mu7dSKQpozUGnwnvrrbfk6aefFqbC02T4TAIkkHQCFNBJn0HanygCaRTNmICf/vSncsABB0hdXV2i5qMYxpaygNZ84b1FKrwPPvhAVqxYIffdd18qFh1ifPRM61nmMwmUFgEK6NKab442JgJpFM6nn366XHLJJTJu3DhJ4/jCeqtQQGeSZCq8TB58RQIkkEwCFNDJnDdanRACaRSW8DZPnz5dGhsbEzIL8ZpJAW3PH55bpsKzZ8OzJEAC5hOggDZ/jmhhwgikUTTD24zYZuwSmMbxRfkWo4B2p8tUeO6MWIMESMAsAhTQZs0HrUkogbSKSnqbC39DUkB7Z6hT4b3xxhvy3HPPyfz582Xjxo3eGzC0JuOkDZ0YmkUCBRCggC4AHm8lgTQK5+uuu06OOuooxjaH9PamgA4G0poK78UXX1S7HQZryay7KKbNmg9aQwJBCVBAByXH+0qWQBpFMybz9ttvlwkTJkh9fX3Jzm0UA6eALowqU+EVxo93kwAJREOAAjoarmw1hQTSKJzhbZ45c6bK21xVVZXCWYt/SBTQ4cwBPLdMhRcOS7ZCAiRQOAEK6MIZsoUUE0ijaMZ00dtcvDctBXT4rK2p8BAvfccdd4TfSQwtMrwjBujskgQCEqCADgiOt6WbQBqFM73N8bxnKaCj4w7ByVR40fFlyyRAAs4EKKCd2fBKiRFIo2jGFNLbHO8bmQK6OPyZCq84nNkLCZDAIAEKaL4TSppAWkXzNddcI8cff7yMGDFCGNsc71ucArq4/NOaCg8UGeJR3PcSeyOBfAQooPPR4bXUEkircL7nnnukpaVFamtrUzt3SRsYBXR8M8ZUePGxZ88kkHYCFNBpn2GOL4NAGoUzvM2nnnqqNDc3c5fAjNk24wUFdPzzoFPhvf322/Lkk0/K4sWLZcOGDfEbVqAF9EgXCJC3k0ABBCigC4DHW5NBII2iGeTpbU7G+48C2px5guDUqfBWrlwpTzzxhCxbtswcAwNaQiEdEBxvI4ECCFBAFwCPt5pNII3C+dprr5VTTjmF3maz33oZ1lFAZ+Aw5gVT4RkzFTSEBBJJgAI6kdNGo50IpFE0Y6x33XWXjBo1irHNThNv8HkKaIMnZ+/CPJ0K76WXXpIHH3xQVq9ebbbRHqyjV9oDJFYhgQIIUEAXAI+3mkEgraL5yiuvlDPPPFMaGxuloqLCDNi0wjcBCmjfyGK7wZoK709/+pPcf//9sdkSZscU02HSZFskMEiAAprvhMQSSKNwPvvss+ULX/iCQHQ1NDQkdm5o+DABCuhhFkk5sqbCe/XVV+XOO++UjRs3JsV8RzsppB3R8AIJ+CZAAe0bGW+Im0AahfONN94oxxxzjFRXV9PbHPcbLOT+KaBDBlrk5qyp8BDi8eijjxbZgmi6o5iOhitbLR0CFNClM9eJHmkaRTO8zV/60pdkzJgxSjgneoJovCMBCmhHNIm6oFPh/eUvf5HHH3+cqfASNXs0lgTCJ0ABHT5TthgigTQK5+9973ty7LHH0tsc4vvE5KYooE2eHf+2wXObxlR4IEGvtP/3A+8oXQIU0KU798aOPI2i+fTTT1exzZMmTaK32dh3XjSGUUBHw9WEVq2p8FatWiXz5s0zwayCbaCQLhghGygBAhTQJTDJSRhiGkUzuH/nO9+RT3/601JXV8fY5iS8ESOwkQI6AqiGNQnBqVPhvfjii/Lwww+nIhUeMFNMG/ZmoznGEKCANmYqStOQNApneJtnz54tkydPpre5NN/WGaOmgM7AkfoXTIWX+inmAElAEaCA5huh6ATSKJoB8ac//alMnz5d5W0uOlR2aCwBCmhjpyZSw5gKL1K8bJwEYidAAR37FJSOAWkUzvA2X3LJJTJu3DhJ4/hK590Z3UgpoKNjm5SWmQovKTNFO0nAOwEKaO+sWDMAgbSKyptvvln2339/aW5uDkCFt5QSAQroUprt/GNlKrz8fHiVBJJEgAI6SbOVIFvTKJzhbf7yl7+svM1VVVUJmg2aGicBCug46ZvZNxbmpTEVHhccmvl+o1XREKCAjoZrSbaaRtGMiaS3uSTfzqENmgI6NJSpbEinwlu2bJm88cYbTIWXylnmoNJIgAI6jbNa5DGlUTifdtppcvHFF9PbXOT3Uhq7o4BO46yGPyamwgufKVskgSgJUEBHSTfFbadRNGO6br/9dpkwYYLU19enePZKb2jw7D399NOyceNGlS2lmASKJaDvu+8+5cHEl78zzjijmENkXyETYCq8kIGyORKIgAAFdARQ09xkGoXztddeK8cdd5yMGDFCGNucnncvxDJE81NPPSWbNm1SAzvssMNSLaAholHGjh2rRDTi9pEhhiWZBJgKL5nzRqtLg0BlaQyToyyEQBpFM3jA2zxmzBhm0ijkzWHgvRDM2A0Oj1It+MIAMY3HZz7zGbWxD748sCSLQEVFhbS2tspnP/tZOfroo+WCCy4QxErjvf3oo48mazAWa61/U7jw0AKGh4kiQAGdqOkqrrHWD7ni9hxdb/Q2R8c2zpbXrl2rPM3wOCPnLsswAf1lAl5p7JCJ8I6GhobhCjxKBAHMGR6XX365nHPOOXLppZfKc889J/Pnz1ehSYkYhI2R+u8MhbQNHJ4ymgAFtNHTU3zj9IdZ8XuOtsef//zn6mdt5m2OlnMxW4dQfuGFF2TBggUCAe2llHI4A7zSd9xxh3ro7eaxcyZLsgjAK433Mb4QwSuNL0X4kvTkk08q73SyRjNsrfVvD8X0MBcemUuAAtrcuSmqZdYPr6J2HGFn11xzjRx//PGMbY6QcRxN6wWB8Db7LaUsoK2swA4PCGiEBXDRoZVOMo7xmQ2P9MEHHyz77befnHvuuUpI//GPf0x8Kjz994hCOhnvxVK1kosIS3XmRVK79fRdd92lsmhgUSBLOgjYLQgMMjL87I1HMUsxs3DoRYR+xwchpr3S/JLhl5459SE429vb1S8yL730kjz44IOyevVqcwwMaAmFdEBwvC1SAvRAR4rXzMb1t3szrQtm1VVXXaW8aI2NjYKfOFnSQYALAoszjwiHQSgMHlhsCK/0rFmzitM5ewmNAD7bEaZ2xBFHyIwZM5RXGmFOK1eulHvvvTe0fordkPVvFsV0semzPycCFNBOZFJ23voBlKahwduMVerwoLGkgwAXBMY7jwiRwYOp8OKdh0J7r6urk0mTJskXv/hF5Vz4whe+IK+88oosWrRI3nzzzUKbj+1+/beMQjq2KWDHewlQQKf8raA/bNI0zCuvvFLOPPNMobc5PbMaZEFgekZv5kisqfAQ3oEHU+GZOVf5rNKp8LAe5Mgjj1S/LixZskQQ4pGGVHgU0vlmn9eiJEABHSXdmNpOo2gGynnz5gniSeltjumNFUG3hSwIjMAcNulAQC86ZCo8B0AJOY3PTjzmzp2rwjvSkArP+veOYjohb8SUmEkBnZKJtH6IpGRIahiXXXaZnH322dLS0sLY5pRMbFgLAlOCI1HD0KnwsFgRMdJIocZUeImaQmVsdio8hHesWLGCqfCSN5W0OEYCFNAxwg+j6zQKZ/xUjA90eLvobQ7jXWJGG/gDDU9mKe8QaMZMFG4FQm60V5qp8ArnGVcL+PuBz9iDDjpIfRFiKry4ZoL9JpEA09glcNbSKJoxDd/5znfk05/+tGDxCzNpJPCNaWMyvM2Is4TYguiKuzCNXXQzACHGVHjR8S1WywiDYCq8YtFmP0kmQA90gmYvjcJZe5uxWry6ujpBs0FTnQhwQaATmXSfx7wzFV7y5xh/Z5gKL/nzyBFET4ACOnrGBfeQRuFMb3PBbwvjGtALAhGqYYK32ThAJWQQU+GlY7KzU+EhP/irr74qCxcuTPQGLfpvKhcdpuN9GtcoKKDjIu/Sr/4P7lItUZfhbT7//PNl6tSp9DYnauacjUWIBgQzwjSwwIwlPgK7du2Kr3OHnpkKzwFMwk7rVHif/exn5eijjx5KhYf1DBDTSS3Wv7MU00mdxfjspoCOj31Oz9b/zDkXE3zim9/8psycOVMtVmFsc4In0mI6FwRaYBhyiA1oTC560SFT4Zk8S+62IdYdD50K7/LLL5fnnntO5s+fL/hCndSi//5SSCd1BotvNwV08Znn9Kj/4+ZcSPAJ7W2ePHmyWhSY4KHQ9L0ETFsQyIlJJgGmwkvmvGVbzVR42UT4utQIUEDHOONpFM4333yz7L///moRSoxo2XVIBLggMCSQbCaHAN5b2ivNVHg5eBJzAn/H7FLhYdvwO+64IzHjsDNU/42mV9qODs8xjV0M7wH9nzKGriPpEt7mOXPmyJgxY6SqqiqSPthocQmkdUFgmtPYYWEu5i3Jhanwkjx7w7ZDcDIV3jAPHqWTAD3QRZzXtAlnepuL+OYpQldcEFgEyOwiLwGmwsuLJzEX8beOqfASM100NCABCuiA4LzeljbRfOKJJypvM/I209vs9V1gdj0uCDR7fkrVOqbCS8fMpz0VHmaJIR7peK/6HQVDOPwS81E/TeIZ3maknxs1apQPAqxqKoFSXRCIjDBnnHFGUadl5MiRMm3atMj7TEMIhxskhIvhcdhhh7lV5XWDCeCXhs2bN8uSJUsk6anwsjFTTGcTSe9rCugI5jYtwvmkk06Siy++WOhtjuBNEkOTXBAo8tOf/rTo4osCOvw3O1Phhc80jhb7+vpky5Yt8pe//EWWL18uDz74oGzYsCEOU0Lvk0I6dKTGNcgQjpCnJA3i+fbbb1cLAhHDxpJ8AmldEJj8meEIghJgKryg5My6z5oK78gjj5QLL7xQXnjhBXniiSdk2bJlZhnr0xqrFqCY9gkvIdUpoEOcKOt/mBCbLUpT1157rRx33HEyYsQIxjYXhXi0nXBBYLR82boZBJgKz4x5KNQK/O1EBpYDDzxQhQqec845KrQDqfCw02HSvdJaG1BIF/pOMet+hnCEMB/6P0cITRW9idtuu03wcyiEM0vyCXBBYP45ZAhHfj5puMpUeGmYxcGFeWlMhadnh2Jak0juMz3QBc5dEsXzlVdeKYhvRohGbW1tgQR4e9wESnVBYNzc2b+ZBJgKz8x58WsV/rbapcJbtWqVzJs3z29zxtXX2oFC2rip8WwQBbRnVLkV9X+A3CtmnqG32cx5CWKVXhD4hz/8IfGbZwQZP+8hAS8EmArPCyXz62SnwjvrrLPk1VdfVeEdq1evNn8AeSzUOoJCOg8kQy8xhCPgxOg3fcDbi3Ybvc1FQ12UjtauXSuPPvqoIFQDIprFHwGGcPjjlcbaTIWXjlnF5x9S4T333HPqgc/FNBQK6eTMIj3QAeYqCeL5rrvukvr6esY2B5hf027BH4qnnnpKCWdkH2AhARIITuDpp58WPJgKLzhDE+5ErDseU6ZMUbndL7/88lSkwoO+oIg24R3mbgMFtDujxNTABwh+2mppaRGkB2JJNgEuCEz2/NF6swkwFZ7Z8+PVujSmwqOI9jr78dajgPbJ30Tv8y9+8QvlTcG3cZZkE9ALAiGe6W1O9lzS+mQQwC882is9ffp0ueCCC4q+W2UySJltJf42429gdiq8P/7xj7J48eLEpcKjiDb7/QbrGAPtY45MEs/0NvuYOMOr4g84Ng/ggsDoJ4ox0NEzTkMPEGKIlZ49e7aMGzcuDUMqyTEgFEKnwsOW4Q8//LAkcdEhQzrMfPvSA23mvDhaRW+zI5rEXeCCwMRNmdEG79q1y2j7kmQcvtQuWLBAPQ477DDllZ41a1aShkBb4SHMSoV3/vnnK2dF0lLh0Rtt5tuZHmiP8xKn93nu3LnqJ0XGNnucLIOrcUFgvJOTZg801j+wREcAiw7POOMM5ZmmVzo6zlG33NfXp7zSSHGYpFR49EJH/c7w3z4FtAdmcYnnn//85zJhwgQV1+XBTFYxmAAXBJoxORTQZsxD0q1gKrykz+Cg/XBoJCkVHkW0We87CmgP81FMAf3d735Xjj76aCWamUnDw+QYXIULAs2bHApo8+YkyRYxFV6SZ2/Ydnilt2zZIn/5y1+MT4VHET08b3EfUUB7mIGoBTRWfePn1/Hjx3NrbQ/zYXIVLgg0eXZEKKDNnp+kWodFh4iRxqJDZPJgSSYBiNOOjg756KOP1OYsTz75pCxbtsyowVBAmzMdXEToMhdRiucf/vCHcuihh6oNT+htdpkIwy9zQaDhE0TzSCBCAvjizFR4EQIuUtP4e29NhXfuueeqRYevvPKKLFq0SPCrYtwFNlJExz0Lg/3TA+0yD1EK6N///vdqw5OJEydKc3Oz4GektrY29dizZ4+LZbwcNwEuCIx7Bvz3Tw+0f2a8IxgBpsILxs20uyBWkQrvr3/9q6xcudKYVHgU0fG/UyigXeYgagGNpO+NjY0ZVmghvW3bNkFqKv5HycAT+wsuCIx9CgIbcM899xQ9r+/IkSNl2rRpgW32eiOzcHglVfx6TIVXfOZR9NjZ2Sn4u4y8/cjicccdd0TRjac2qQs8YYq0EgV0HrxRimd0u3z5cjnooIMcLcB/EAhoLG7YuXOn8lA7VuaFSAlwQWCkeIvWOH71KXahgC42cXP7Yyo8c+fGj2U6FR42ZdHhHW+++aZceOGF8u1vf1tGjRolXV1dcsstt8i8efP8NO2rLkW0L1yhV6aAzoM0agH9+uuvqzR1eUwYuoSQDnzz3b59u/qPOXSBB5ER4ILAyNDG1jAFdGzo2XEWAabCywKS0Jf4O4GFh1jHhLAdLWqhH3p6euTmm2+OTETrvhKKLvFmU0DnmcKoBTS+sfpNyI//kPBGb9q0SSCq+R8ozwQGvMQFgQHBJeA2CugETFKJmchUeMmd8P7+fsEDBX+L9cM6ovfff1+OP/5466lQj6kBQsXpqzFm4fCFK9zKvb29vhusqqpSPw/hZ2EI6a1bt6oFDvhJiSU4Ab0gECvpIaBZSIAESKAYBOAMQSztfffdx1R4xQBeYB8QrBDN2cIVDjc89Hk84zF69OgCe+TtphKggHaYmai9zw7dej4N+7C1Nx74+QihHQjxgIeaxTsBLAh88cUXVQoq73exJgmQAAmESwBf4pkKL1ymYbZm9Tbna1drBy2mEdbxi1/8Qr7yla/ku43XEkiAIRwOk6b/EzhcDuX0a6+9JpMmTQqlLTSiwzuw4I1p8Jyxgg/+UD311FMqFMa5Jq+kjQBDONI2o+keD1PhxTu/8CDbeZv9WAUtgV+bJ0+e7Oc2X3W119vXTaxcMAF6oAtGaE4DOryjtbVVZe/AT4PwTjO8Y3COIJj/8Ic/qPRD5swaLSEBEiABewLwSi9YsEA9mArPnlEUZ7VopjCNgm562qSATs9cDo0Eq4Gt4R1Ig7djx46SDO/ggsChtwUPSIAEEkwAeYfxYCq8aCYRYll7nMPugUI8bKJmtEcBbcY8RGZFfX297LPPPir1HXZT0tk7IuvQgIa5INCASaAJJEACkRDAZzgWHOLBVHiFI9aimSK3cJal1gIFtM2MFyP+2abbSE/V1NQIHiNGjFBZOzZv3py6XQ65IDDStxAbJwESMIyAXnTIVHj+J8brokD/LefeEbU41wsWc3vmmSgJUEBHSdel7aj/U9l1j/AOxEgjxAPbkmJBHTzTQVLq2bVf7HNcEFhs4uyPBEjANAJMhedtRuLyNsfxt94bEdYqhAAFdCH0EnwvvrEivGPatGkqvANp8JBTGtuPJqFwQWASZok2FosAwpZYSICp8OzfA8X0NttbwLNpJEABncZZ9TkmhHaMHz9exowZoxYbYtEhPohN+9bMBYE+J5bVS4bAX//615IZKwfqjQA+L//jP/5DbdKCWOnZs2f73vnWW09m1orL22xHw7S/pXY28px/AhTQ/pml9g6Ed2CHQ8RJI/0dfhbEbodxpsHjgsDUvt04MBIggSIQwGdoKaXCo7e5CG8qdqEIUEDzjZBDAOEdSOCP8A5syIIdDhHeUcxdDrkgMGdaeIIESIAECiKQ1lR4Jnmb7SaIHmg7Ksk/RwGd/DmMdAS1tbUyceJE9dNfW1ubILwD3ukoPhC4IDDSqWTjJEACJKAIpCUVHjc8GX5DMxPHMItiHVFAF4u0TT9RiFCbbkI5hfCOUaNGqRCPXbt2CdLgIXtHGOEdXBAYyhSxERIgARLwTWOoGEQAACAASURBVCBpqfBM9zb7ngDekFgCFNCJnbp4DMe33KamJvVAeAeENDzTfsM7uCAwnvljryRAAiRgR8D0VHgUznazxnNxEqCAjpN+wvtGeMeUKVNUBg9sFY4PYIhqp8IFgU5keL4YBLDZBAsJkEB+Avic1l7p6dOnywUXXCBnnHFG/psiugrRrIVzRF2wWRIITIACOjA63qgJVFVVyejRo1WIB7J2IE4az/jgQ8HCFf2BrO/hMwkUmwBSNbKQAAl4JxBXKjwtmvXfEO8Wm1kzLeMwk258VlFAx8c+dT0jvAM7HOKBjVkgmm+55RZhjtrUTTUHRAIkUEIEipUKjynoSuhNlYKhUkCnYBJNGgJiobEteGVlpZx99tly+OGHy+LFi2X+/Pmyfv16k0ylLSRAAiRAAj4JhJ0KL23eZp84WT3BBMoTbDtNN4QAvAbYAhzZORADDQGtC1LgXXvttfK73/1Obr31VjnqqKMEIR8sJEACJEACySWgU+FdccUV8u///u8qVM/PaPB3A38rkMmJIQ5+yLGuKQTogY5xJrq7u2PsvbCu8YGHDz94nL2kssMOh+edd556rFy5Uh555BFB+jrklGYhARIgARJILgG9xgULdbFlOBYdYjOu7FKq3mZ+Qch+J6TjNQV0jPOIb+BJKxDLEM1+09ZZxzlz5kzB47333pMlS5bIb37zG9mwYYO1Co9JgARIgAQSRsApFR7+1kFEUkgmbEJpbl4CFNB58fAiCOBDT4vmMEX//vvvL3hceOGF8sILL8gdd9yhRHUh4pwzRgIkQAIkEC8BLDp87bXXBB7pmpoatbAcaU9ZSCBNBCig0zSbIY8FQhZhGtaY5pC7UM3p8I7TTz9dVq1aJXfeeae89NJLDO+IAjbbJAESIIEICRx99NFy/PHHq/UuuhsIaoTrQUxDSGNnWxYSSDoBCuikz2DI9sPDrL3Nxf65DR+s1vCORx99VMVKb926NeRRsjkSIAESIIGwCGAfgBNOOEEJZxzbFfw9wSJzPJClqa6uTqqrq+2q8hwJJIIABXQipilaI/HB5mdBYLTWDLaO0I5vf/vbctVVV8mTTz4p999/v/z5z38uRtfsgwRIgARIwAOBv/u7vxsSzh6qD1XB35v29nYpLy9XXml4pumVHsLDg4QQoIBOyERFYWYYCwKjsMvaJsI75syZo1Z2I7zjl7/8pfzpT39ieIcVEo9JgARIoEgE6uvrlWhGpg0nb7NXU/CLZ2dnp3pAROPBNKde6bFe3AQooOOegSL3H9WCwKiHYQ3vWL16tTz44IMqDR7DO6Imz/ZJgARIQCSot9krO+wlgAe80vi8h5jGMQsJmEqAAtrUmQnZrmItCAzZbNvmDjnkEPmXf/kX+eY3v6lipLHTIcM7bFHxZIkQwO5wLCQQNgF4m7H51Zlnnin77LNP2M3btgevNBYcwjONGGmIacRMs5CAaQT4rjRtRkK0B95mbNYC8YzjtBWEd2CXQ+yE9fzzz8t9990n2KQF42UhARIgARIIRgBiGaIZGTWw2C+Ogr9Z2iuN+GgIaTxYSMAUAhTQpsxEBHZASCZ5t0OvSPChetppp6nHyy+/LAsXLlQP7nLolSDrkQAJkICoLBrIpoFwDZMK1uswFZ5JM0JbQIACOsb3AVcdhw//7//+7wWPr371q4LQDu5yGD5jtkgCJJAeAlgICG8zhHNc3mavNOGVZio8r7RYL2oCFNBRE87TPgV0HjgFXpo4ceJQeMfTTz8tDz30kLzyyisM7yiQK28nARJIBwGEZyCThmneZq90k5QKL40hlF7nKc31KKDTPLscm4qZO++88wQPxEcvWLBAHnvsMabB43uDBEig5Ah42fAkaVCYCi9pM5Yeeymg0zOXHIkLAb3L4dVXX61S4P36178WpsFzgZaiyw0NDSkaDYdCAt4JwMuMMA1k1Ehz0YsOmQovzbNsztgooM2ZC1pSJALY5RCPiy++WF544QW544475L333mN4R5H4x9XNfvvtF1fX7JcEik4gzA1Pim58gR1mp8JrbGwssEXeTgK5BCigc5nwTIkQQBo8a3jHvffeK88++yzDO0pk/jlMEkgjgag3PEkSM50KjwI6SbOWHFspoJMzV7Q0QgI6vAOe6Mcff1zllGZ4R4TA2TQJkEBoBOLY8CQ04yNuiIv1IwZcws1TQJfw5HPouQQQ2nHdddfJpZdeKk8++aTcf//93OUwFxPPkAAJGEDAhA1PDMCQ14SysrK813mRBIISoIAOSo73pZoAwjvmzJkjs2fPlldffVV+9atfcZfDVM84B0cCySFw/PHHq7zNSU1BlxzStJQEnAlQQDuzifwKdldiMZsAdjmcNWuWeiC847e//a3KKb1z506zDad1JEACqSKQpA1PUgWegyEBBwIU0A5ginG6s7OzGN2wj5AIILzje9/7nlxzzTUql/R9992nsneE1DybIQESIIEcAvQ25yDhCRIwggAFtBHTQCOSRADhHZdddplceOGF8vzzzwvySXOXwyTNIG0lAbMJpHHDE7OJ0zoS8E+AAto/M95BAooAwjtOO+009XjjjTfk4YcfloULFzINHt8fJEACgQhge214nNO+4UkgOAFvYhaOgOB4mysBCmhXRKxAAu4EDjvsMMHjm9/8pjzyyCMqTnrdunXuN7IGCZBASRMo5Q1PijHx2JWQhQSiIEABHQVVtlmyBBDece2118oVV1yhwjvmzZsnr7/+Onc5LNl3BAdOAvYEuOGJPReeJYGkEKCATspM0c5EEbCGd6xcuVIWLFigFh52dHQkahw0lgRIIDwCesMTpMdEnDMLCZBAcglQQCd37mh5QgjoXQ6xQQvS4CF7B3c5TMjkJcRMxOCzmEuAG56YOze0jASCEqCADkqO95GATwITJ05UuxwiDd7vf/97mT9/vsre4bMZVicBEkgIASwIPPPMMwUCmoUESCBdBCig0zWfHE0CCCC844ILLlAPhHf8z//8jyxevJhx0gmYO5pIAm4EuOGJG6HiXudW3sXlXUq9UUDHONtcHRwjfEO61uEdWHj4+OOPy9133y3c5dCQyaEZJOCDADc88QGriFUrKylzioi7pLriOyvG6eZ/7BjhG9Y1djlEjPSll14qy5YtU0L6z3/+s2FW0hwSIAErAW54YqXBYxIoLQIU0KU1346jXf23T2TZipfl86d/VvYZ2+pYjxeiJYA0eF/84hfVY8WKFXL//ffLkiVLGN4RLXa2TgK+CHDDE1+4WJkEUkmAAjqV0+p/UO0dnfLXl5fKf7y8VCYdOlO+fN5ZFNL+MYZ6x6xZswSPd999Vy06RE5ppsELjrihoSH4zbyz5Alww5P0vwUQPtfc3Jz+gXKEoRCggA4FY7oa+ejNlfIfb65UQvr4mZ+Wz3xqeroGmLDRHHjggYIHwjsee+wxlQbvvffeS9go4jd3v/32i98IWpA4AtzwJHFT5svg9evXC5wTDz30kAqdg9OChQS8EKCA9kKpROtASD/05kr5/eQD5ayzz6KQjvl9gPCOyy67TC688EJ59dVX5bbbbuMuhzHPCbtPJwFueJLOebWOCqlEf/WrX8mLL75oPc1jEvBMgALaM6p0V2ytGnAc4I4P35WH5r2rhPSRx3xaLjjpGMe6vBA9AaTBs4Z3PPzww8p7wvCO6Nmzh3QT4IYn6ZvfqqqqoUHB2wxPMx4ffvjh0HkekEAQAhTQQail8J6qcmcBrYcLIf3Mh+/KiiVPyKxTz6aQ1mBifEZoxw9+8AP56le/KosWLZLf/OY3sm7duhgtYtckkCwC2tvMDU+SNW9+rIW3GaIZzywkEBYBCuiwSCa8HaRR81q627fKMwvuU0L68Fknybmf/Xtpaaj1ejvrRUAA4R1z586Viy++WJ5//nkV0/fKK69E0BObJIF0EOCGJ+mYR6dRtLe3y7333qscC/Q2O1Hi+UIIUEAXQq/E74WQfvnJ/5E/LXtcDpp5ilx05gkU0jG/JxDecdppp6nHG2+8of6AwOvC8I6YJ4bdG0OAG54YMxWRGPLyyy/LggULZOHChZG0z0ZJQBOggNYk+ByYQH93p6x59jH58cqlMu3wzzCXdGCS4d542GGHyb/927/J97//fZW5A39UGN4RLmO2lgwCesMThGnU1dUlw2ha6ZkAvM34fIPH+eOPP/Z8HyuSQCEEKKALoVfgvV1dXQW2YNbtENLMJW3WnMAahHdgl8NrrrlGpcHDokOGd5g3T7QofALc8CR8pia1SG+zSbNRerZQQMc4593d3TH2Hm3XzCUdLd8grSO8w7rL4aOPPiqLFy/mLodBYPIeYwlgUSA8zQjVgOeZJV0E4G3G7qzwNr/zzjvpGhxHkygCFNCJmq7kGctc0mbOmU6D941vfEN++9vfqkWHjJM2c65olTcC3PDEG6ek1nr77beVaIZ43rVrV1KHQbtTRIACOkWTafJQmEvazNmZOHFiRnjHAw88IKtWrTLTWFpFAlkEuL12FpCUvaS3OWUTmrLhUECnbEJNHw5zSZs5Q9nhHffcc48sX76c4R1mTlfJW8UNT9L9Fvjoo4/kv/7rv1SoBr3N6Z7rJI+OAjrJs5dg25lL2tzJ0+Ed7777rtp4YN68eUyDZ+50KcuQsjDthRuepH2GRWXSQDYNLnJO/1ynYYQU0GmYxQSPgbmkzZ087HKIx6WXXip/+MMf5Je//CXT4Jk7Xam1jBuepHZq1cDgbcaCQAhnepvTPddpGx0FdNpmNKHjYS5pcycOafAuuugi9VixYoXcdddd8sILLzC8w9wpS4Vl3PAkFdPoOAgIZnqbHfHwQgIIUEAnYJJKyUTmkjZ7tq3hHfPnz1cZPJi9w+w5S5J13PAkSbPl31Z4m7FDIIQzNzzxz493mEWAAjrG+SgvL4+xd/O7Zi5pc+cIoR033XSTfO1rXxPkk77//vsZ3mHudBlvGTc8MX6KCjIQqecgnJcuXVpQO7yZBEwiQAEd42xUVFTE2HtyumYuaXPnCuEdV111lVxyySVq4c/PfvYzLgAyd7qMskx7m7nhiVHTEpox9DaHhpINGUqAAtrQiaFZuQSYSzqXiSlnkAYPQggP7A724IMPCkI8enp6TDFRGhsbjbGllA3hhifpnn1ur53u+eXohglQQA+zKPoRksQPDAxIWVlZ0ftOcofMJW327M2YMWMovOO+++6TRx55xIh4x+nTp5sNLsXWccOTFE+uiOBvGeKakU2Dsc3pnmuObpgABfQwi6IfdXV1SXd3t1RXV1NEB6DPXNIBoBXxFoR3XHfddXLNNdfIsmXL5Ne//jXDO4rI34Su9IYn+GWCJX0E6G1O35xyRN4JUEB7ZxVJzf7+foGQhojmosJgiJlLOhi3Yt2F8I6zzz5bPbBNOHY5fOKJJ4wK7ygWi1LohxuepHuW9fba2CmQ3uZ0zzVHl58ABXR+PkW5ijAO7YmmiA6O3JpLesKMw+XL550l+4xtDd4g7wydwBFHHCF4/OAHP1CZOxAnvWnTptD7YYPFJ4BFgbNnzxZk1Kirqyu+AewxUgJvv/22CtFARg1ueBIpajaeEAIU0IZMFEV0eBMBIW1NgUchHR7bsFoaNWrUUHjHY489przSa9asCat5tlNEAgjPOOGEEwSLA1nSRUB7mxHbjMXBLCRAAsMEKKCHWcR+RBEd/hRoIT16/8Pl1JNPlM98igvJwqccvEWEd3zxi19UD+xyCI/0008/zfCO4EiLcie31y4K5tg6QQo6hGjQ2xzbFLDjBBCggDZskiCidUx0sfNE1zSPkq6dWw0jEo45W957XR5673X5/eQD5ayzz6KQDgdrqK3oXQ4//PBDlbnjv//7v4W7HIaKuODGuOFJwQiNboDbaxs9PTTOMAIU0IZNiDZHx0QXU0TXplhAa646l/Ti0ZPl08efJBecdIy+xGdDCEyePFm+8Y1vyFe+8hW1yyG80gzviG9yuOFJfOyL0TO8zQjRgHhmbHMxiLOPtBCggDZ4JuMQ0QbjCNW0ji0fyjML7pMVS56QWaeeTSEdKt1wGkN4x5w5c9Tj+eefl7vvvlueeeaZcBpnK64EuOGJK6JEV6C3OdHTR+MNIEABHfMkIGQj30YqENFVVVVSWcmpimKqrLmkDzhyplx05gnS0lAbRVdsswACepfDd999VxYtWqQWHTK8owCgDrdywxMHMCk5rbfX/s1vfkNvc0rmlMOIjwBVWXzsPfeM7ZCRLxq5olmiIQAhvebZx+THK5fKQTNPoZCOBnPBrR544IHyrW99S6688kp58skn1UIn5qItGKtww5PCGZrcAhYDLly4UJYuXWqymbSNBBJFgAI6IdPV19c3lCs6ISYn0kzmkk7GtGGXQx3esXz5coFHjeEd/uaOG57445W02trbjFANfslM2uzR3iQQoICOcZbyhW7YmUURbUclmnPMJR0N1yhaPfHEEwUP5Kl98MEHVSo8/GpTKmXt2rW+hsoNT3zhSlxlbK+NRYH0Nidu6mhwwghQQCdswiCidZo7vwLcbahlZW41SvM6c0knY95nzJghN910k/zzP/+zyihw5513lsQuh14zJ3DDk2S8j4NYiQ1P4GmGcKa3OQhB3kMC/glQQPtnFvsdiIfWGTrCFNHV5QOxj81kA5hL2uTZGbYNuxxeddVVcskll8hLL70k//mf/ymrVq0arlBCR9zwJN2TDW8zhDPim1lIgASKS4ACuri8Q+stKhEdmoEpboi5pJMxuUiDZw3vgJjcunWrIPNN2gs2PDnjjDO4vXYKJ5re5hROKoeUSAIU0ImctkGjKaLjnTzmko6Xv5/eEd7R1NQkEydOlM2bNyshjV9x0lS44UmaZjN3LG+//bYK0eD22rlseIYE4iBAAR0H9b19hpHbGSJax0SXl5fHOJrS7Zq5pJMz9/g/N2HCBBk/fry0tbXJxo0bE79deF1dnVx//fVy1FFHJWciaKknAvA2QzAjthmLZFlIgATMIUABHeNchBW/jJ+kdUw0RXR8E8pc0vGx99sz/u+NGDFCPbAhC4T09u3b/TYTa318ecYDW583NzfHags7D5cAvc3h8mRrJBAFAQroKKjG0CZFdAzQHbpkLmkHMDGerqiocOwd+ZCnTZsmU6ZMUVk7EOKBbDcmFvw/h2guhThuE/lHbRO3146aMNsngfAIUECHxzL2liiiY5+CDAOYSzoDh/EvEN6BGGmEeGCx4ZYtW4wJ79DeZuMh0kDfBLDhCUI0IJ69piT03QlvIAESCJ0ABXToSONtECJax0THawl7txJgLmkrDbOPEd6BBXl47Ny5U4npOMI76G02+31SqHX0NhdKkPeTQLwEKKDj5R9Z74iJhteKxSwCzCVt1ny4WYPYYjwmTZqkPNKIlY46fEKHaETdj9vYeT18Anp7bWw9T29z+HzZIgkUkwAFdDFpF7kveKJRqqqqitwzu3MjwFzSboTMul5dXZ0R3rFhwwa1cDcsK+ltDoukme0gkwY2O+H22mbOD60igSAEKKCDUEvQPZ2dncoTXVNTkyCrS8dU5pJO1lxnh3ds2rRJhXkEHQWFc1By5t+nvc0I1eD22ubPFy0kAb8EKKD9EktgfXii8bMw8sWymEmAuaTNnJd8Vunwjj179qg4aYhpr2EXqGdqpo98Y+Y1dwL0NrszYg0SSAMBCug0zKKHMfT09KhaFNEeYMVYhbmkY4QfsGtsGY4Y6XHjxglCO5AGL5+QhnDOdz2gGbwtRgLcXjtG+OyaBGIiQAEdE/g4uqWIjoN6sD6ZSzoYtzjvQho8bGqCDVr++te/Sm9vb445dudyKvFEYgi8/PLLKv0c4ptZSIAESosABXRpzbdARCOco6GhIWfkY6YeKJvW/SXnPE/ER4C5pONjH7Rn/N866KCD5L333hOsQdCFIRuaRLKf6W1O9vzRehIIiwAFdFgkE9QO/pDv3r07R0S3VDHtncnTyFzSJs9Opm3IfHPAAQfImjVr1AWdmi6zFl8liYDeXpve5iTNGm0lgegIUEBHx9ZTy/jDmm+bYU+NBKjkJKIDNMVbikyAuaSLDDxgdwjpwBbh27ZtY072gAzjvg3eZiwKxE6B77zzTtzmsP+ICWDjJBYS8EqAAtorqRTW0yK6vr5ekJ6LJVkEmEva/PlqamqKfDtwxlWH/z7Q3maIZ254Ej5fU1tcvXq1nHXWWaaaR7sMI0ABbdiEFNsciGj8gbCLiS62LewvGAHmkg7GrRh34YspRHSUhRk9wqOLnM30NofHky2RQJoJUECneXY9jg1/gBET3dG5x+MdrGYiAZ1L+tnH/0cOmnmKXHTmCdLSUGuiqSVlEzcxMnu6seEJRDPEM73NZs8VrSMBkwhQQJs0GzHaAhH9zntr1a5q2CCCJbkErCnwKKTjn0csKGSYRfzzkG0BBDMer7zySvYlviYBEiABVwIU0K6ISqcCwjlWrFghRxxxhIwfP750Bp7SkWohfdOzj8mkQ2fKl887S/YZ25rS0XJYJOBOIKneZmzWgy9h/CLmPsesQQLFIkABXSzSDv2YtngPeaKxOQBE9JQpUxys5umkEdAp8CikkzZztDcMAkneXnvSxIly7rnnDi307ujolD17OtVW8Ag56egcPEYGCWQNgcje1d4uO5hRIoy3DtsgAUcCFNCOaEr7wqpVqxQAiuh0vQ+0kG6ZfKCcdfZZ8plPTU/XADkaEthLAN5m5GxGmMbHH3+cSC7HHH20fOYzs0QGBqSnt0eNoa6uVmpra9R28Nj1cmBA1HWE4al/eN77QJrUPXv2qAeENda6dHV1qUdHR4d07r2G89ZNfxIJi0aTQJEJUEAXGXiSuqOITtJs+bNVp8D7fYkIaeRkZikNAkn2Nltn6JhjjpHjjztOCeSenm7lgYYw9lrKpEzKy8ulrq5OEAKCe0eOHKmeZQCaO1dw4xfIrj17pLevXzo7O6Srq1v6+gaF956uLunt6ZX2Xe1KiEOcs5BAKRPgX5VSnn0PY4eI3rp1qwrp8FCdVRJGQAvpR5tGyaxTz5YLTjomYSOguSQgKnQBnmZk00iqt9k6jxDPJxx//KDYtV6I8BiCu6qySiobK1W/TU2Ne8U2PNp7BXeW6IbXGmtnIMYRTtLbi+N+tRi9u7sbOl3a2tqUxztC09k0CcRCgAI6FuzJ6nT9+vXKYMRFs6STgE6Bt2LJExTS6ZziVI4K6zUgnNO0vfY555wjfzdjRpZ4xkZX/rzP8C9HWSC462rrlJ0QzfV19XuPB9QidOUtt4ST9PX3S/eeLumXARWn3dm5R+3Q2dvbozzauI5wk86ODunt64vSdLZNAqEQoIAOBWP6G6GITv8cY4RaSDOXdGnMdxJHiYVyafI2W+dg9uzZMn3atAzxXIxNYiGG/Qhuf3J+cIQIJ6mtGwwlgbhuqG8YEtw6nASubnWMmO+eHunu7pHVb62xIuIxCRhDgALamKkw3xAtoj/1qU8Jcttai97JEItRWJJPQKfA+/HKpdyUJfnTmYoRpNHbbJ2YL0A8T5+eIZ6t1ws5bm5qlqbmZlm//oNCmingXr+Su0yqa2oEXmkWEjCVAAW0qTNjqF0Q0Tt27JBZs2ZliGh88N94442ycuVKeeCBB2TTpk2GjoBm+SGghTRzSfuhllmXi60yefh5BW8zFgWmeXttLPL78kUXyZgxY3LEM9KcqlAIP9AsddHmpEmTZOzYsbJp0+ZQBLRfKWwxx/NheXmZlJWXe67PiiQQBwEK6DioG9rn6Bpv3/aRbxQbrlhFNDzQ9fX1csopp6jH0qVLKaQNneegZukUeMwl7Y8gBbQ/Xqj99ttvK9EM8Zzm7bUhni+79FJpacEGR+HELFdUVMqY0aNl6r5TpaWlRbCVPER4a2uL/4kI5Q5/khvCuby8QqXmC6V7NkICERGggI4IbNqbzRbR06ZNyxgyhXQGjlS90EKauaRTNa2xD6YUvM1WyPV1dXLpZZdJa0urrZfZr/cZQnn0mDEyffo0aWxolOrqaqmqHgy16+nukYqKCmv3wY79aWER8XcD4qTxwFcJHxn7go2Fd5FAgQQooAsEWMq3axF95JFHOmKgkHZEk/gLOgVeqeSSTvyEGTqApG6vXQjOyZMnC2Ke4YH2IhQhfnt77X8hxC9/EydOlH2mTFGL9CCkq6uq1SI8LMTDLyDlZTbhEP60bSHD9XQvhDPGqUJW9kIxbadeTwOxqVRIGI5NczxlCAEKaEMmIqlmaBE9d+7cvEOgkM6LJ9EXtZBmLulET2PRjUcmDTxeeeWVovcdZ4cQz1++6MtSVTWYb9nelkx1ayfAmpqaZerUqSplHHYmxGZB2DAFG54gHVz/QL+tZ9u+Pw9nM01yvcFPZg8I5coKLUeG84GkRUBzcb3r2yWRFfQ7NpHG02gzCMDLoTN0uFmkhfTixYtVjDQ/WNyIJee6ToHHXNLJmbNiW1qK3mYr4ykQz1++2Jd4tt6P4zFjxsq++04VbOMNbzMyIkE8d3Z0ypYtW5SIzr4n57VPMewzEiOnu3wnlHiuqlQh4HZfFPLdm5RraY7jT8ocRGEnBXQUVBPaZlNTU2DL/S6UOu+88+TUU0+VW2+9VWXuCNwxbzSOgBbSzCVt3NTEZpDOpFFq3mYr8JkzZ6rdBSF4/QpFhDZMmDhBpu6zjzQ2NikBDm8zxCfE2ZYtW6W/v0+wgNCulJVDMReveNXnQ+JZxTyHs4iyeKNkT6VOwP5/W6lTKdHxz5gxI9SRd3R0qMwcTo0idu+GG24QZOyYN2+e2o3KqS7PJ4+AToHHXNLRzh22UjaxwNuMHQIRppGG7bULYQzxDIeB3ijEa1sQ2xMmTpQJ48dLY+PgwkB4nTHnO3e2q89MBDwMC3J7EYqYaF0gWofr67P5nr3K4Xxt2Fwrk6FUqLb2FFfz2xjIUySQnwAFdH4+kV+1/eCIvNfidIA/nqtX1UMPAgAAIABJREFUr5Y5c+bIIYcc4tgpwjqQxQNimiEdjpgSe0ELaeaSjmYK/f76E40Vw63C24z/+/hizCLyGYjn007zJVqRFnT8hPEyaeJEqa6ukZqaahWu0dXVJW1tbdLR2anaU7sUDtgkwLPX0eInLjno3MEm94WRZVJdXTVoD3Yf1Cn8ItLqQcfC+0ggHwEK6Hx0eK0gAlhg+Oabb6rHoYcemldIQ0DffPPNFNEFETf/Zp0Cj7mkzZ8rPxYiBR02O6G3OZPa7AsukEMOOXRYIGZeznk1cuRIFeM8ceIE5Z2FBxoeZ/yat23bNtmzp2tIiBdDa/oW3J6MKlNfCBBXPdDvoPRzyPAECZhHgALavDlJjUUbNmyQtWvXqu1pvQhpLaKvv/761DDgQOwJaCHNXNL2fJJyNu3baxcyDxdffLEceMABrt7YiopyURk19p0qI9XCwFqprKxQCwORTWPz5i3S29srAwP2aezcbNQSFWI4/gLxXCVSVh54PPGPgRaQwCABCmi+EyIlsGbNGoEn+ogjjlD9aCGNmMCvf/3rOTHSENE4j8WFLOknoFPgMZd0cuYa3mZ4muFxLvXYZqdZQ9jaoHjW8jW3ZlV1tYwaOVKmTNlHmpub1cJAeJsR/tDZ2SFtbTukr7/P1kvrxTOMWGeUoGGCXvqwjspL6AY2dkG+ZzqereR4nFQCFNBJnbkE2a1T3GkRDdNXrlwpV111lQrbgGi2FsRE4zoeLKVBQAtp5pI2d77pbXafGyyMvvzyy2X8uHGOwrWyskomTZokkydPUhupVFUNxjcji8auXbuls7NT5XB2dV3nM6esTKoqK6W7p3vQ7+zT+ewpEiNf/zbXsDNiRTk2SrF40q0dWY/33o8vaywkYCoBCmhTZyZldtmJaCwYxMJBxD5ni2h4oSGwuagwZW8El+HoFHjMJe0CqkiXS2177UKwQjz/n6uvFsQx23l9sTAQeaDHjRuvQjSQhg4e5+7uHrUwEGLXk2i2EZq5dg9Ib1+v2tlPe6Jz64R3xi2zR3VN9fAugyr42dkzH55VbIkEoiVAAR0tX9fWi/Hh5mpEkSpARGPTFXiisTgGxUlE448RRPRPfvKTIlnHbkwioIV0WLmkkUeXxTuBt99+W4VoIKMGN4Fw56bE8//5P0o8Z4tgCOp99pmiNj7RiwLxjEwaW7duU5+J7j14r1FWXi5VFZXKi43PW4h5bLQSV1Ge50rsumjxPMdlDPslgRAJxPe/KsRBsKnkEMDCwhUrVsisWbMyRPRtt92mPNH4Q6TLscceK8jegbhpltIkoFPgMZd09PNPb3Mwxvvss4/MufhiaWhszPE8H3300dLS0iI18DZXV6uNT7q6uqWjo1P27OmU3t4eX53mizOuqa6R2rpaqSgvl24lnPtt8tv56s5T5Xw2VVZVqs95iHjvPudhF7sZCx89YWClEiRQXoJj5pBjJoBFhRDR8I7ogmwdDzzwgH459MyMHEMoSvpAC+mbbvye/NtdD8oHm9pKmkcUgz/99NPlBz/4gbzzzjtRNJ/KNrEz4NwrrlCbnGQPsK+/X1pbW9UD4Rr4vEMaOsQ6q7J3kV/2fc6vISxzCzy8Lc3NUlFZoWKokbEjsHK27yK3U30mT32IZ4SoOCX/sN5KoayB8jlJBCigkzRbKbLVTkQvWrRINm3alDHKsWPHDu7glXHW/cX06dNV3mnEHbKki4BKgXfzjyikQ55Whmr4Azp16lSZO3euQMCKjRjGBjd4YHttbIDSr3YX8e6HdbOmvq5ehYWg3o6dO1WuaKtwjlOUYqFkTU2t2xBcrw9YVbZrbVYggeISoIAuLm/2ZiEAEY0YSzzrMn/+fH049IyUUH4LhDPuu+uuuyik/cJLSH0tpG/6//5LXlyzNiFW08w0EDj++OOHxXMRBqT1OeKbmxobpampSbq6u2T79u3S3d2da0EQne5XrDrUxxcGeNwdLufayjMkkFACFNAJnbi0mI2fNRHOoUU0BLWdFxqx0EEKYqoppIOQS849gynw/jM5BtPSRBOAeD7nnHMGPc9qJH6lot/6IuXlFdLQUC8N9fXK04x49b6+vaEgdjS14ra7ZnfOv0l2rahMG4jDDkM9h2SSrZ08SQJhEKCADoMi2yiIQLaItvNCn3rqqQX1QSFdED7eTAIkICIQz58753NFY4G8yc3NTSpfdGdHp8qIgtjqIAUbmIRWbAR6eUWF1NXVq4WSbv1k3E6l7IaL1w0lEOL/KENHSLMSQUCL6K1bt6oNVDo6OjLsxuYqYcQzU0hnYOULEiABjwS+fNFFcu7nzvVYW6S1pVXVxWeb31JdVa3CNKqrqwTe5l27d+2NoXZvySk1KuKx7YpTfbu6TucgnvHZmiGMsyqH0U9Wk3xJArESoICOFT87txLQIho5aO12IcT232EVCumwSLIdEkg/gSuuuEKOOuqojIFG4Titra2TxsYGFQoB4bxnz56MPt1eWBcOQtRGI1ozR44+6urqLH1Zr1uP3azndRJIFgEK6GTNV0lYu2rVKvnf//3fnLGGKaB141Yhff755+vTfCYBEiABRQCZNj518MEF08gnJbHoDgsDEdestvPe0ymFBhLrzYPyiWir4PYywOz6aLu+vkHCCA+xtm099mIX65BAHAQooOOgzj5dCdx99905dfwsJMzeGjynsawTENJXX321YEMXpMBjIQESKG0CCBnDbqh24jmfGPZKDeKzcW9GDWx8Ao9zD7bzDlwyrepT+aBFNm7cGLjFfDfCfjAqryhERmTanK8/XiMB0wgU8s43bSy0xzAC77//fmCL2traZPny5Rn3Q+R6FdF28dLI7pGd4SOjAxGB8L755psD5Z7ObouvSYAEkkkAnx9f++d/lkmTJoUyAKtMhPDEVt7IH93Z2amEc39WRo1CPLDwBiMc7qOPPpK33npLsK7ErvjtI7v+oHiusGs695wVQO5VxzO7d+12vMYLJBA3AQrouGcgxf0XIqCB5Zlnnsmhc8ghh+Sc83oC4ll7mfMJaQh17IAYJP+0V1tYjwTCIpA3nVlYnZRQO0o8f+1rMnrMGNtR51soZ3vD3pPI4QzhXFlZKdgtEJurhDV3ELf43Orr75MPPvhA3nvvPYETIqqCmOfKilzxnCGyA4pmq81h8bG2yWMSCItAZVgNsR0SCJsAYqGzSxjhFcg1jQdS40EkY7dDu4Jr+Il13rx5dpd5jgSMIDCgdrgzwpTEG7HvvvvKP86dK41NTRIGVwjmiopyKSurlt6+PuUZxnSF0TZgQ5TX1dQoL3PXnj0qpAKhIGEXaGG9NwuEemV1lQzszeoB0TwwdDVgz9YOrMcBm+NtJFAMAvRAF4Nynj6cUgvluSWySzNmzIis7SAN23mw/cY25+sXIlp7pLPT5un7zjvvPIZzaBh8JoEUE8Bnyz/90z9JU3Oz8yj9elXLypRYxm6BOiZZN16Id1XtSNjUJJ0dHWo3QuRfxkLEqEt9Q71UYevygF/aMjzUYey2EvWA2T4J5CFAAZ0HTqldwipwk4qdBxre4iB5VfONC0L6qquukqVLl9pWQzhHGJ5v28Z5kgRIIHYCWjzXVNc42xIwdqO/X/tuM5u29UI79KF1OzJr1NbUyM4dO6Rte5tKHxe5cN7bOXYYRNy236Jt93sf65OA6QQooE2foYTYh58+oyg7duzIaVYvksm5UMCJ3bt3y6233qqycNg1c8MNN4SykYtd2zxHAiQQH4GTTjpJvvJP/yQ1AcRhXqvLxJIbOW9NdTHTO5tZH1t5IxRk+/btajdCODsQS+27+FWze+tX19QIclQXt8B7b7/5S3HtYG8kYE+AAtqeC8/6JBCVgLbzQsMLsmLFitA90RgyvNE33nhjzujh+UZKKxYSIIH0EIB4nj17ttTU5PE8Y7gOnmE3ErZeZrebLNfxWQevMzJpYOFhhnD2K4Yt7fo5hFceuZ51FLQVRRgmWNuwHsNGe9+9H+tZlwSiI0ABHR1bthwRgSOOOEJ27typRDTSQIVd3nzzTVtP9LHHHitRbOYStv1sjwRIwJ3AySefLF/4whfcKwaqkS0F/TVSVV0l3d1dKoczQtZaWvLEZXtt2q9JZaK+WDQ0NhS6p4tXC1mPBBJFgAI65ulCTlCWYAQgopErGs9eCoSx1wJP9OLFi3OqY9GhXY7pnIo8YRSBMHZKM2pANKYgApdddpkP8ez3M9pv/eGh1NXWSm9vj2zZvFkqKiqlpaVl+KLlqBh/NhAi0tDQaOnV/2Ex7PRvFe8ggXAIUECHw5GtRETALhc0fnbVBd4ZhHN4FdH6Pi/PDzzwQM7GKwjl4JbfXuiZVYdfVM2ajzitueaaawS/JplS8OUOeZWRfg67BuK92tgY74LuyqoqaVbZSLwGUQx/aQgsmoeboMfblDcn7chLgAI6Lx5eTAKBqEQ0FhbOnz8/B8HnP/95eqFzqPAECZhP4Nprr5XDDz/cs6FWTeflJj/1IZyRZ37XrnbZunWL1NfXefpcifrLIDzPKpWfqxL2M1p7eq5d2N/GsyRgBAEKaCOmgUYUSkCL6A0bNhTaVMb9COVYvXp1xjlsJEAvdAYSviABowkg7Opb3/qWHH5YdOLZKwAIYGTUwK9mmzdv9pWKLnrxXKXCRvJlBPE6zsx6w2I7/LYze+IrEigWAQroYpFmP5ETgIh++eWXZf369aH2BRGdXbCLIQsJkID5BODl/c63vy37TZ8eqbHDEnGwm+xNsgaFc4W0tW2Xt//8tjQ2NEa++UlTc5N4zZBUXlYujU2NKoTEFM9wNtNIJ5CNk4BPAhTQPoGxevwE3P4gIPVdmDHRENCbNm3KGDhioSmiM5DwBQkYRwDi+dvf/raMHTfOl21hCDedwm5wK+8yFd+8Zs0a+eSTT6Svv8+XPYOVvVuFdHcHzjhQDjzwQJX6zq2z8rIyaWltkcqKAnNLezfR0SSrh7pzzx7HerxAAnEToICOewbYv28CU6dOdb0n7FCORYsW5fQZdkq7Qw89VObMmeMpDjLHGJ4gARLIIACP8/e//30Z51M8ZzTi8UU+3bht23Z5660/y9Zt2yyt5bvDUs3nIdLfzZgxQwln5LZ+//33xS37EDzjLa2tHjZmGbY5lFCS4eYcR7mHAtqRDS/ET4ACOv45oAUJILBy5cocK7GSP8yUdli0CAF91113UUjn0E7uieyf8pM7kuRYvt9++8n1X/+6jB41OnKj3cIdkM+58JJfbWIB4thxY6W1tVVtvLJu3aBwxgYsbqV1xAipCLKroVvDQ9cttlsOhy7zgAQSSoACOqETR7OLSwAhHH/7299yOg3TC7127VrVPhYpUkjnoOYJEvBEAOIZu4bWYnfBGAVboK22PY1wuBI+K+Bhh3Du6+2TtrY2eeutt9TOhcO1nI+Qqq6qoiJ0TNYwDOfeXa7EOHculvEyCSgCFNB8IxhNALsOZpd169ZlnyrKa7vFhAi7CLNYM35oIR2mSA/TVrZFAqYRmDVrlnzjG98YFM9BjPMr2vK4n5siyuWM8An88jV27KBwxhbf8DTj0dPdoxYBehl6c0uz1NTVGrBdthW69djLKFiHBOIjQAEdH3v27IEAPCvZBXF9QQriopGpI2ixilvdRtji1s7LPT3i7AF6LHwmgSQTOP200+TKK69U20+rceQRt7bj9FvftpHck52d4SyEKy8vUwsC4XFubm5RW31r4dzV1Z3bcZ4z2OGwtq5OvKrnsGWt1/YY/pRnEnkpdgIU0LFPAQ0oFgFk5sCuhUFFtA6xsNoLL3GYAteuj2nTplm75DEJkEAWgdNPP10unjMn62zELz0K7j17OpUhXkVjttXYcAVZNeBxRlYRLKzbtGmjCtfo6sqKr/bQCdqora0VnSUkuz+TXlNAmzQbtCWbAAV0NhG+NorAiSeeGKo9hYpoOy90mALXzgN9yCGHhMqAjaWHQF9fkHRo6Rk/RoL1AnhkFI/idugev/WHbozuoLKyQsU2I2VmU5MWzpuUcA4673V19dLQ2JhptHXsHgR45s3RvDLEjGgGx1ZTQ4ACOjVTmb6B2IVvhDHKQkS0ncAN2wPd0dGRM8ww+8hpnCcSS6DUPXRf+9rX5IwzzsiYv1BSrGW0aPfCn8SzalS71qznKiq0cB6nPMXIzrNxowfh7GJSY2OTyvUsAwMSyupKS39+xmcdK49JIMkEKKCTPHspt91uASGG/MwzzxQ8ci2i8eyn7Nq1K6d6mB5oNM4wjhzEPEECOQSu+9rX5Oijj8457/eE/4wRFuXot7M89auqqpTHGTHOdXW1smtXu9rAqb29Xdw8zm4CFmEf4yeMDxi2YRmvW0d5xjd0ydLc0DkekEACCVBAJ3DSSsXkk046KfBQvdwbRETbhXCE7R222/gg7D4Cg03gjYghZUkPAcTwfve737UVz/7FcLRcKjy896qrq2XUqFEyevQY5XGGYIbHGc9h/MKA9vFrXvH/Hwwr5TB0d7QzxdZJwD8B/mXxzyz0O0xazFHfkBUfF/povTcYpQdaW4EFhVhY6NcTre/HMxYShlnswkTC9nKHaa+pbeGncCyWCnOzG9PGijFix7lSKRDPP/zhD+Xggw8OZcjDEs9bc37rY36cSnV1lRLOEM8VFZUqthmZgvAr18BAv9NtOefzhaxUV1XLhAkT1OYqOTcikMPvgOwayTgXQoMhNJFhEl+QQEQEKKAjApvUZqfu/3fGmP75z3/e1hZsFhBm8SOiN27caNt1mPmg7UI4uJDQFrvtSYgWfKnBAz+Lp7nAqwhRCQ9jMTbuiJOlFs/jx4+3NcOv7vJb37ZTt5M2ChWC+aCDDlJzhvcqPs+QVaOzsyNURavE86SJUldfL9htcKjY2DR0ragHwzNg2i8HRcXAzhJLoDKxltPwVBOYO3eu4/hWrVrleC3oBS2iP/WpT8mUKVMcm8GOhFEX9IGFhNmebYRx2InrqO1JSvvaG5vP65eUsfi1E2NGbl+8j+HBDOOnf782RFn/gAMOkGuuuUYgnuP6xQ5yD8vvPJdhfahuGTlqlPIGV1dVyc6d7eqBOOdCxgPhOWBjFb5M7Tt9mkzbd18ZMWKk8mhjMWJLc7O07djhfQhlZUP2QXer9Yee7y6sYn+fdy98YT3xbhIIRoAe6GDceJcHAthOd9999/VQM7eKk4Bevnx5buWQzkB8QJyvX7/ed4thh1jYCeWw+/A9SMNvwBeOUhTP1mmBx33EiBHqy1e+n/at95h+DPH8ve99T4lP023Ntk/vGnjIIYeqz8Luri5599131QML+zJLluLOvOj5FcKWjjvuOBUj3tjUJHu6u4aEr7dfZEKww9qE9djzKET2dGXz8XEzq5JAEQhQQBcBcr4u0vJHzm6MCMFAPO+vf/1rX0IaCwCd8j+HkYHDzlbruSAiOuw4W7uFhGGGiWC8yC978803S9jtWlnyOB4CdXV1KkQAz0kuEM/f//73VSx7nOPwqwF1lAS8y/hs6O4eFs5YHBhOybQKuxJ2dnTKmWeeJaPHjJXu7u4h77Fdf5l3Z76yq+92LpS/ZYWb4WYmr5NAaAQooENDyYacCFxxxRW+hPSPfvQjp6ZkwYIFjtfCvAARbecFDrOPfG0VYyEhtiFHbPVPfvITCul8k5HQa4iPhlce8dHIxJC0csIJJ8gNN9wQu3iWAkUdQrLgdd6VVzgH7wSCHEIdv1Ad9KmDpbKqMiPWIrPlzFfB3hPDbQSOXdbfMGDAcHPBzOFdJBATAQromMCnrdv333/fdUhWIe2UYQPeaifv87p161SIhWtHIVVYs2ZNUfuzmm3ngQ47hMPqebYKaabMs85E4ceheOYKMANhLdgKurm5OTELDc8++2z56le/Gr94DsK9SIJQx08jywbeY80tLcO8QrAhhCYy6AUW2xmt8AUJmEOAAtqcuUi0JYhZPvnkk8VLjDKE9GuvvSYQ3bfeeqvA44xnvMY1p4I6hZQgiw8RD+3lPmQICLNgwY/dgkWr6C20v2OPPTanCQjpsMNRcjopkRMQNRCv8P7CQ1jIYrEwkCH+FQsNMb/FzwnsfQRf+tKX8n4OeG/JpqZfVWj1lNo0F8cpvUh0zJixqvud7e0ybvx4qW9oKNgcv3jcOqRodiPE60kmwCwcSZ49w2xHfDLil/GAKHbyJGuzp06dKtdff71+mfd5x44dKpY6byWXi0HT3+lFhU5ec3QbtncYbSKMA3HK1oJ+7LzT1jpejhG+YVeQ/SOM9u3aLpVzEM4QqNrzbBXO+lhfi4MJFplB1GMRGx7apjhssesTXxIhEnt7e9UDX0KQVSIn37XftBB+69sZ53bOYx8Yi99MKUh1N3LkSPWZgC/YHUh7J6IWV+KLka8MGVDKvlKKuA288OuZGUXKhv7/FN4yWyCBaAjQAx0N15JuVQvp2bNnC8IuwigQ5EEFcBj9Q0S//PLLKk1YGO15acMuBjus8AonT/bKlSsdTcsW844VS/SC9jhD8LkJZIjWOIWrjo+G8MoRpjHPHwQ+2GieOMaCOHyJxgOfA9u2bhUsmtu+fbv6EuC21XWgIfn1PmfVzyeQKyrKPQtobPKEDEH7TpsmVZVV0tHROTScCRMnqhj3oRN5DsLwLlvbsB7n6TbvpTDayNsBL5JAhAQooCOEW+pNY8Ef0tj94z/+Y0FCeuHChSrEI26e2CUMuxYWq9htGx6Wp9sufAPjyud9PvXUU+XOO+8UPLMME9BCz4twHr5r8ChuIQ2bEX4EIZ2EAl5WYQrhjEV027Ztky1btsrmLZsF/0+3bNmihDa82Kjj9oUmjrFn6e0cE3bs2CnIooIYZ3zJQYYNa0G6whEjWqMZm9U4qlwrdh6TwBABCughFDyIioBOYxdESL/++uvilBM6Knvzteu05Td+Ug272HmgwxDQ8CQ7eZPzeaDHjRun7kPYDYU0No0bjHEOIpyz3ytxC+mk7mJo1Xb9A/1KXGNeIJr3dO6RLZs3y+bNm2XDJ5/IJ598Ihs+/kSJ6507dkp3T4/0O8U9WAVk9mTZvrZaYlvB80l42Wtqa2XixInS1d0tnZ2D+ZCtXwLwhWf8hAlDKSys14Y7KvO5s2HhY7Bisx4P28QjEkgPAQro9MxlKCMpL/wz1NEOq5CGMHYrt912myDuOM7QjWwbkRLMrtiJXbt6fs5FtZDQKf75pZdeknxfBKyiG8dWIV1KCw/DFM7Z74e4hXS2PSa+theLeSzd67WG57pvoF+69uwRfBHeuHGjfPzRx/Lhh+vlw/XrZcMnG2Tzpk3StadLsOFJtCXzgxYhKtu2bZWa6mrBF9We7h7p7Mz0OGt7WlpbZOKkSVKeR6GidbQ1XGcw4BkMMnvOfKX7cH+23JfHDvd29tawNOf5HlYkgZgJUEDHPAGmdV9bEf3KEghpCOMjjzxSfvzjH6vMHfC6oEBY33PPPeoadjI0reRbSBiFrVGEcTjFP+cL33AamxbSd911l8yZMyfVGTyiFM7ZfCmks4kU9topG4QOCYGwhGjGItpPNnwiH3/8sbz/t7+p0DOs40BYyDbEW3d1qYWNXqzxsokNhDOy7TQ2NsikSZOlt69PecazVO5QruSW1laZNHmyaxYVfIr39PWqegj/qKiolOqamgLj7gtXudYvP2Hobi/zwDokEBUBZuGIiizbdSWA9HBeUsS5NpTiCvBsn3LKKRkjLHQhoVP8c77wjQwDbF5gww4IaOw+iZj1RYsW5fVm2zRh7Cn80bdm1SimoRB4KFbhUcz+S7kvLa4H+gdkd89u6W/fJQP9/TKAfwMD6j1RUV4uldXVUrc3swlCL3RxEtB6LhG7jTAM5Oju7u6R3r5+fWvGM4Qm3gYQwhMmDuZ81u+LjIpDAR0iSFkI7zPCVLq6utTiw+y6Tq91f07X/Z+H8I7eMePfLt5BAoURoIAujB/vLjECSNFnV/BHKooS9o6ETuEb6Mcu77TfMaVJSMcpnLO5a8GkxVf2db7OJRC+EBzsA3OBBxYo9iAspLNTdmxvE8Rgo0DsIssG4pRHjRypvNrIoqE8wZWVMnbMGBk1apTs3NkuHbt3e5KWuHfffacJBDvCUJwK/v8hiwk82z29vc4x3lkNhM+KojkLMV+mkABDOFI4qRxSdASQVcSu3H///Sqtlt21Qs7ZhVUUspDQKXzDLlSkELu1kE5iaAdEKhYGhrE4sBCGdvdq8WZ3jeeGIh0cURQchODSALzV/f190t3VreKst27ZIh99+KGs/+AD9bqxoVHFNm/evEXFYGPNQX9fn6O9uFBTUyvTp++XdxdJZFIZPWa0CgFBbm/HtH5QyrpYj/U5D88Zt1ma83CrQ5XhRqyhNsgFzkICJhOgB9rk2aFtxhFwioGGNwop7nB9ypQpodoN73C2aIYQthPXbh07hW8sWbLE7dZA17WQTkJoh0keZzfY9Ei7EfJzHQIuT4hBYZfVokBss93b2ydq+20lstukbccOGejvU15ieK0RylFZiU1jqqSiskKFXWBx7vT9pkt5eUVG+j49OsROV9fUSnv7TuXRrqoc3Pkyc1MSXTv4M/5v6Pdc4FZcOAZulzeSQEwE6IGOCTy7TR4BZOA4/PDDbQ3Xsdx41jsX2lYMcDKsMA4s+LNm0tCmYOFU0CwiCPvw4r3WQhoeaSwOtbND21PsZ5M9zm4sSsEjjfnJV6xeS9t6Lvfb3lPoSYvJTc0tyss8YAm9yBhT2eAIdrbvlK3btql0ex9+8IG89957yqUOQZ1dGuBxHj1aenr7ZMuWzWozmZyFh9k3+X5tGYTve/feEEITQbvmfSQQNQEK6KgJs/3UEHCKf9a7o+mBhi2i7cRtkIWETvHPhSwehIC+4YYb5MYbb/QspLEoEnmk4xbSSRbO+r2mn0tBSOuxqmcXUeym21xuz+iq0BdW4ZyvLbsvAuVlmX+iGxobZPSoUdLX06vyWXd1DeZ1g4xRAAAgAElEQVSIzteu2zU3Vm7347rVduuxl3uH6lgNsR4PVeABCZhFgCEcBswH/vhleCQMsIkm5BK44IILck+K2GYSgYhGHtcDDzzQ9h4/J8PyQDvFPxcioPU4EE6CB/pANo5DDjlEX3J8hpDGY+nSpfLAAw+EsojRsTPLBfxfiyurhsWMSA71z+z8PMnFC02WJ1BjcNORfBVcG8jt03oGwhIZPIIUhHJUV1dJ+852tfOidTdGr+1ZNWmBQ/HapYd65ljiwVhWIYEMAplfbzMu8UWxCOg/esXqr1T7cYpf9sID4Rt+BDTafOedd2zFtZf+rHXsYp2zY6Kt9Z2OneKfwxDQuk/Y6scjjfu0RzqIV1336+U5TR5nt/GWnEc6ywvqxsfrdavotL8nfw2kk8tfcu+3nqmvrxN89vT19srWrdtUSrr87WUupLS25Xaf0/Ww2/DqoebfRacZ4XlTCFBAmzIThtgxY8YMQywpzAy7bBm33HKLPPPMM+IUipGvR4QbIC2VXUGbTgXx0Do+2qmOl/N2ccZOHmW79pzCN7D7YBQliJCOatV93MI5iLcwrDlJughxFVuusRj55Z/r7QVOhO0vAR46raurV4sKu7q61U6sUaXJzBieBZXlMKMKX5AACQwToIAeZhHbke2HbEzWYCV4GsrUqVNth3HiiSfKsmXLfAlpeIDy7YqYT0DDiDBEdKFhHE5iO0zvsx1wLaSvvvpqFaphV0efCyMPtW4Lz3ELZ6stcR6Xojc6H2+3z1s38eh2f6YP2NkSu2CO+to6aWpqlK7ubhWqkZOOLsO4jBdZHQ1IdXW1VFQOR2na2p2viawWnV6G0ETG+scw2nOyledJIEwCFNBh0mRbiSFgFdJOoRl6MNh63Mn7jF332tradFXHZ4hopLnDhgpBSqELCZ3CN+zCQ4LY53YPxPGtt94qTkLa7guCW5tO1ymc7clQSNtzUWddvMKuos6mAnYiHP4FwKbCXnMQjw/R3Kx2JOyS9vZd0t/bm8dYb5f6Bwakr69/r5CuGLbFZayOrVuGELQJx7Z5gQQSSIACOoGTRpPdCSBG+J577nGtCCH96KOPyvvvv68EnjW8A8Ia3mXkMHYqCxYscLqUc37r1q2BRbSdwPQaB+2Uvg5thu31zRl01gknIR2GHRTOWbAdXiZRSFu0m+2o3K5LDIqvsrIy75LBivIyJZybGhulo3OP7Gxvz9jO23VMdiT0OPculMXCQ+Soh5AOVHR7gW4evCmEJgronbeSQHQEKKCjY8uWYyQAQTx37ly1AYkXIY2Qj+uvv16Fd2iBAWENge1U1q1bJ/BO+yk7d+4MJKLtPNBeBbRT/HMYm6dgJ7UgJVtI243Pb7sm7hzodwzFrK/f58Xss6h9FajcXOOvAw4GZlVXVYkWzjt2tg/tHOgomh0vZKWQKyuT6uoaqamuVr92dXd12W7Akt/0PJ3lv3HoaoHoh9rhAQmYTIAC2uTZoW0FE/ArpP10+KMf/chP9aG6WkQjzZ2fEnQhoVP8s117fuxB3UKFrxbS8+fP99s164dEwFQhbRuzW/CY84tDtz5dRXW+5iGcq6uluqpaevp6BcLZMVTDpp0MUZrxQlRaxhEtrdLc3Cw9vT2CxYeY13zFpot81R2uWVuxHjtUtzmdMZRgTdi0ylMkED0BCujoGbMHAwhoIX3yySfL8uXLC7YIbfj1Pls7hYhGG3j2WoKGcdjFP0O4+hW/UaeZ88qB9dJNALtWBi1uAjhou4XcV1ZeLkhnB+GM7byxQHCgf1jcIju0Y3ERlIifbmltkRGtrYIsNtjUaaA/M1zDysSlOUczwr7g+kUk7A7ZHglEQIACOgKobNJcAjqNXSFC+vXXX3fMCe1n5FhQiIWFXkW03YI/N1HrFL4RJH1dIcLGDxfWLW0CWHznp1gFop/7dN0MD6g+aXkOLDr36mKEa/T29ki3Es6D4ta9zfw1ysvKpLW1ReWIhnDGFuC9fZaFh/lvt4zO+dCNi/OdTlf8GeX1c9GpN54ngagJUEBHTZjtG0kgqJCGeMZCQy+ZN7wM3I+ItvMYu8VBO4Vv2IlxL/ayDgkkgkCh6s/lfjcPKkS99isjh7NLNIVnpMrj3DIsnLdt26682p4bsK04LGwL/TKimh9uzrY3Lyfd+Hppg3VIIGoCFNBRE2b7RhPQQvrII49UWTvwE6hdwfkf//jHgt0MwxLPuh8tojds2KBP2T4j7KKjoyPjmpuAtgvfQBtR53/OMJIvSCBkAiFoNN8WufXpJvpcNHlGLuRs48rKyqW5uUVampsFC3e3bR8Wzm52Dbal5Xx2y8FfZ4htb0bkdhb0vtyWeIYEik5gOMt60btmhyRgDgHsFoisHSgQyfAyYwMVFIhsPKIsENEvv/yy6nvKlCmOXcELfcghh2Rch5fZzqPslL7Orm5Gg3xBAgYSUF7dfK5ciLF8OhEKtpD7o2DiYtPIkSPVwkBUw5d4fE70W+Kn3U2yQHFT8O6NqQ3T80P20IjFJA+1WYUEjCVAAW3s1NCwuAhATIex/XYQ+3W/TiIa4jdbQMMLbSeKneKf6X0OMjO8x0QCblrMRZ8WPiTVQfBmcvQ+BgSZWl4mjQ1NMmb0GOno2L1XOGcuDszo1TpQ6zEq5XSScWdkL+CRHxjq3G2mIjODDZNAZAQYwhEZWjZMAsEIQERj50K7YpeJw2khoVP8MwW0HVmeM5EAtGDxS2Gdapuddi/V1+3GVV42uCthY1OTdHZ0SNuONscY53ztoG3ES1dUVth1Y3uusFHbNhnw5KAlfVnZRAI2xttIIDICFNCRoWXDJBCcAET0mjVrchrws5DQLv4ZuZ+Dbn6SYwxPkEAMBFxjjd1sclOebvcHue6iTsvLy6ShsVEaGxuko6NT2nfsHN5cJePejBd5LanCToj9A2oTRmTtMK1kWpT5yjRbaQ8J2BFgCIcdFZ4jAQMIQCwj5hEx2brohYTWlHJ2CwkZvqGJ8bkkCEAg5olvVvoxTygD5Fuey+HE/jpMRH1dnVRUVsruXXtDNfKMw6EJ29P47MDunOUV8JMVLlDdGdmawZMkkFoC9ECndmo5sDQQQCiHjovW47GLd84O18h+re8NO3zj1FNPFTxYSCBSAhF4UF0lZaEV8tzfPzAg9fV10tTUKN1d3bKzfdeQx9k3x6x+8BI7HlZVV0tvX99g/LQfUZ7Vnm97eAMJlAgBCugSmWgOM7kEtIiGRwnFSxiHXfgGvNd4hFmQ6eP666+XO++8k0I6TLBsq2ACkejAQhstE6msrJTKqirp7uqSXe27pNca6+vli4KDDYh5bmpqkuqaGuntwXbeXTm7EmZCtTTkpd/Mm3NehdBETps8QQImE6CANnl2aBsJ7CUAEY1dCyGiEcecXcaNGzd0yil9XZDdB4cadTmgkHYBxMuhELBIPvv23FScawP2zRZyVudLrqisUlt69/X1KXGrhbN3k+xrQji37t1cBTneIZzh4Y6sWBnbm+TeddD73FtmDRIoGgEK6KKhZkckUBgBbG0LEf3OO+/kNGSNg44z/plCOmdqeMJwAm6LEt3Md7u/qrJKaqprZGCgX30BHghJ3CrhbNnOe9u2bZYwkLAVauHtWXW3G1NeJ4EkEKCANmCWwvpANWAoNCFiAhDRTz/9dE4ohjWVnV38MzxTdrHTUZlLIR0VWbabQ6BwbZfTpOsJH33i872ru0v6+/pcmx2q4NJ+Y0ODtLa0yq5duwXCGbHO+cqQeC0TQXYOlZoj3w0FXbMabz0uqFHeTALGEaCANm5KaBAJ5CcAEY1dC60FWTkaGhrUKTsBHfbiQWvf+Y4ppPPR4TUnAq6ya0gROrXgcr7Q+12a15eRPq63r1e/LPi5oaFeRo4YIXv2dMm27dukt9db29pLDjHfjewc5eVKQyO8pKqqMoQcHQUPTbSNqqUykV3t7YU3yhZIIEICFNARwmXTJBAVgVdeeSWnaXih8bCmuNOVohLQdvHYuk/rM4W0lQaP4yDgJsrdrrvabNMAMmG4F/d4ZXw5HjVqpNpUZfu27Z6Fs5Myhse6v79fPSCoy8rLB73SENR5PNThf++wgbYXmJtX3Z0ra5BAtAQooKPlm7jWjznmmMTZXIoGP/PMMznDhkjN3uZbV4oqfGP+/Ply9dVXy9KlS3VXeZ+tQhrHLCTglYBejOe1vqd6rorQWeCp9l0vu1bIayaE84gRg8J569Zt0tW1Z7B+nmbzXHLsq6+3V2XsgKju7tYeaviE4aGuKjziI4hRjtbyAgmYQYAC2ox5oBUk4IuAk4C2C99A9o1Cdx+0a1cbjNR4t956q28hbc0cotviMwlkEHATuG7XnVywGZ1E8wJhEoFKWZnU1dfLiNZW5Wnevh3CuWtvU/6UKASw9zJct7fXwUMNQZ3XQz3chq+uvRvJmiRgDIGA/8ONsZ+GkEDJEnj99dczxj5hwgSxE7pReZ8zOhdRCxv9CunsNviaBFwJWDSabV1XUW1719BJt9u9itI+a37nodbzH9TX1Upra4v09fTK9rY2i3DOf5/d1eqqKrUTYfY1Kz7rcXY96+shD/UAPNTdgzHUyj+tPdReW7K2ajm23m49tlThIQmYRoAC2rQZoT0k4JFA9g6FRx55ZFHjn53MDOKRdmqL50uPQCShGoVidFXVbqov//Wa6molnHv7+qWtbYcSqcMm5793uF7mESKr+/r71K6Eg9t5Z14v5JXyUA/sjaHu3htDvdflnNdDbXVLuzBFvmwWEjCZAAW0ybND20ggD4FsAd3S0pJT+29/+1tOyrucShGdoJCOCCybNYKAi/6zSkVbe+HJxpbbra2t6nq2cC70iwQygFRXVatdCRHb7LVYx2U9znf/sIcaWT66BX2rf0ibhxhqVxq5rfuxOfduniGB6AlQQEfPmD2QQCQEsgW0XSdes2TY3RvWOQrpsEiWVjtuAtLVL+uq/vK34NZ/IbNRVVkhrSNapaKy0sbj7N6y1XLrMe7ENuE1NdXS09s7mH/ay8YtrqzcbbJqZHiP++081DoPtbWyh6ZZhQRMJEABbeKs0CYS8EDAbiFh9m1LlizJPhXb62whXejCxtgGwo4jI2CXgjGyzmwadveUZsvVzEa06O7tsc/PXFFRKTU1NSptXNv2Nuns6MxsIM+r/D2LNDY2qowdA/390tXVrbJqZDeXOT63FrPvHnytx4hXXnV3X5/O8jGYh7q8fNAS3I+dGrVd+tm+Z54lAbMIUECbNR+xWzNx4kSZesjfx24HDfBGIHshofWudevWye9+9zvrKSOOtZBeu3atEfbQCHMIuApor4otzCG59Gl32bq7LGQqMnJU19So0AZk1EDuZU/FrvEs3QvhPGb0aEEYBTJ25MQO27XhqXNrpaxOrZe8HluaGPRQD+zNQ90tKka7TKSsvMx24aPXLliPBIpJgAK6mLQT0BcE9OU33yPTvv6A1E46KAEWl7aJ+cI44KFev3695KtT2vQ4+jQQsOgy2+G4XffsRrVt3eGkRbRCOGOjku6uLunpHRTOZVl7p2S9dGg083Rtba3aXAWhGpu3bJE9Q6nuMutZX40eM9r6MufYlVXOHflPePUoY0dFeM77+vqlr7cv90tA/m6Mv2r12htvLA30TIAC2jOq0qrYcMCxsv8N/yuTLvupVI2cVFqDT9Bo84VxLFiwQI0EIhpbf/d49XolaPxJMNXqjUyCvaVgY9hCMR8zCGevW247tmMxuLamRkaPHi2VlZWybds22bNn7+YqTje7qHNL004t+DrvVTTnNjpoCbzTr61alXuZZ0jAMAIU0IZNiGnmjJj5RZnx/55VQrqirsk080rennzeZS2gAWnDhg2yYsUKiugY3jEU0AGgWzy4dnfH4dFz69MqHCFus4vr/S5jRuw0tvPGwsMtW7bIrl27srtwfN3T3R3Ksr1iiO2/rl1b8MZPjiB4gQRCJEABHSLMNDcFIX3g/3tWxp5znVBImzPTENAnn3yyLF++PMOohQsXZrzGi507d1JE51DhiVIhYBW4YY3ZSVA2NQ06G1w0sbOotTRcXV0lo0YOCuetW7fmiEtL1cFhWTrNuRZg4GG0Ye02X3ubN2+Wjz/52FqdxyRgLAEKaGOnxjzDKuqaZeznrqeQNmxqEMZx0kknZQhpq/fZai5FtJUGj9NOwKIlAw210PuDdKoFZnlFhdrOG57nrVu3Scfu3Y7N6XscK3i5YG3Eeuzl3hDqIBRlzVtrQmiJTZBAcQhQQBeHc6p60UJ6v+//r7TO/EKqxpbkwViFtJOAxvggop999ln1nOTx0nYSCEKgYG3o0gA83YUIb2TsaG5ulvr6OhWm0d4+HKqREQbi1gk2Myl3+RPv1oYHwNYmXNA4toZNU15/8w3H67xAAiYScPnfZaLJtClqAlMbvG2hWj1qsky+7N/kwP+7nEI66knx0T6EdFtbW947Ojo6VDgHxDQLCZhEIEMkBjAsqIgL0NXQLdY+IVqRTSKjWCtkXBh8AREKj3Nzc5Mgld+u9l3q0dDQ4BzmYdOO9VQ1dgDcq24zhbSLMdZGrMdhKGVre5bjt976c05oiuUyD0nASAIU0EZOS7xG1Vf4618LaaS+Q/YOlmQQQFYOLCwsRERv3LgxGYOllYkmoIWg0yBc45ut4s+2ERdR6XLZ2mRvT4/Kb2w9l++4rKJcmhobpb62Vnbt2i3tu9rV/T66HGreyqG3b9ARUltbozJ2DFXydRDEiswOrOitx7rWJx9/Ihs38XNE8+BzcghQQCdnroy3FOIZIppC2vipGjKwUBGNTVFYSMBEAm7Sz07MFToOhCJ4TVlXXl6udg9samySzo4O2bV7117h7WZ5lpU2A6moKJeqqipBH8gP7ZbC0mePWQbYvfTWIsa85s9v2TXAcyRgPAEKaAOmKG1prrSQZg5pA95cHkzAH1dk8UC+aKeCn5JZ/v/2zgTKiurO/79+7/XrDbobmkVxx4Vg3BJ1XAIa0ZhRZ3REiaOJnL9R0NFxC07GhSQIBlE5ipPMEY4YTPooRhCTCXFUFAUVQQcSWUTZFxdkabrpff+f3+1X3fXq1fqq6r2qut86p8+rV3WX3/38br/+vtu/+l0QCBQBHeHou30murCbujOEald3ehJmXiGOFcSoqLiYyvv1o6bmJqqvq6OOrp6QD5PmKS2Ww2Ds8XicOE80C2fe8ZBXw40OgyaMitu4bmp9Rv2uzk76v9WrM67jAgiEhQAEdFg8FUI71TmksRlL8B3IKfGMRPRxxx0X/AHAQukJqEMY9GBYSjwXqrKtLVOsdrR39MYhsz2FyUJKFBZSW1sb1R46RF0cK23ap6XFYpicd3rgwIFUWlYqhHN7e0fv8NUtZLtYY2pib09OTgpo7fr1goOTWigLAkEiAAGdR2/wKoEMhyKkkUM6+N42E9HBtx4WSknAUt2pJWQmIavq5rW5vQLi7bS7uzUPDqq6SsQTlEwWiS2qWTyblRUtWhmVapv/hlRWVopQEH5wuP5QPfGad5rN6kVw9bnKPr1Tq7hzvToZ19IM6bu7+4vdhOcn+njgLJwE5FBw4fRN5KxGDulwuJRF9KZNm2wZe/HFF9sqh0IgkC0Bq1XlbNs1q2eg+3qrKOKSXzs6O4jDEdQH1+dV4URhgpJFRUTdXdTW1tqz4kzdnOhOXdzxuRDOFRVCPNfV1YmsOxx/7f5wZ5fo36KJ+oYG2rAB+Z7d+wot5JsABHS+PSBZ/0oOad7VEDmkg+v8zz//nFhIWx133303zZ07lyCkrUjhfpAIKALYrU38wGBnR4941opiFrkcwtHGschC3FooSxNRrSxIc5sVFZVUWVEhckTX1BwkbZy1nTFZWWKvjb5W7PLs7OykVR99ZKd5lAGBwBOAgA68i6JpIAtp5JAOtm85HtqOiB4yZAhBSAfbl1Gwrk+u6Y/G6r55rDHHPZi3kHG3m0Tohr41ZLqJSacS7pHRqKY11X1+kLeiooIaGxuIhbOSpk5VRFNZOybTkpl1fbjy908+QdyzD1zRZH4IQEDnhzt6TRFQckif8MBfkEM6gLPCrohm0yGkA+hAmOSKgHZVWd1YW3ubyZoxR20YPyCoDflQt6s95wcD+QFBXu0+ePAgdaRWvNPLeSuOvWhN3QZz3LlrF+3ZsyfdbLwDgRATgIAOsfOiZHrxkScjh3RAHcoievLkyfTCCy8Q72BodUBIWxHCfbsE7IYGGLZnsapsWM/kBotBkVdZk6Kut4paOfZe7DsxE+V9pYiSySQNqKwUISI1NTUiu4b6vkU36qLinPNCmx1O2zNrS3vvUP0hWrdunfYy3oNAqAlAQIfafdEzXskhzZuxIPVdcPy7bds2uv3222n8+PE0f/58x0L61FNP9XUwxRVVvraPxsNDwFp0m0tFs/qxggLq5IcGPXlgT820z6ZkUZIqKispnkjQwdpaam1rVRfsOe8rnnkvdYXjpRPxvm1lY7FUJRt1DRtN3XDSBGcdWfHhh1ZN4j4IhI4ABHToXCaHwSykR0xbTtiMJTj+5i2/lyxZQn/4wx/o5ptvdiSkf/3rX9P06dPJLyFdVA4BHZyZkr0l/fv3z76yi5pWC9WKYOQwCk5ZZ3Vos8Up9c3q8YozPxyYiMWprrZW7E5oVt7qHq848wOGBbECKkwkrIrr31cZrjrVL2twlTdLYRGNAwSiRgACOmoejdh4lBzSh187meIl+fnjGjGkrobDInrFihUibRavRDsR0qeccgr5LaRdDQ6V804gWwFttmqc9aA0qrqrmzQ7+xlLSl6hNr7bY5FyPxaPU0X//mLr7dq6Ompqbk4VUEqoR6B3TXVfdZuzf8RjMSpMJp2tmGvGrWrd9qnSxOYtW2jfvn2266EgCISJAAR0mLwlsa1VF91EnPoOm7HkfxKwiH777beJXxsbG8VKNAvppUuX2jIOQtoWJhSyIKDSivolFRWnf9fRVV7JNdsW225japPiiTiVl5dTaWmJSEnHv0uWY0p1ZFWusDBBRUVFYgWahXSnZciJVYvWI1SPjUvvr6lBvmdrbCgRYgIQ0CF2nl+mDy72IiG/99apc0hXXfT/vO8ALdomwA9R8Uo0i2g++I//rFmz6JZbboGQtk0RBT0nYKUDtSpPa4Be/YICsVGKyLdsVd+GBOaQitKSUiotLaWG+npqqG+wmctZz7j0ARQlk1TMwrmrSzx0yHmXxdaESjHrJpSSJq+qRgx4tLa20qpVq0zawC0QCD8BCOjw+9DzEQwqCqaAVgbKQvrwa39BJ01dhs1YFCh5eNWKaDZh7969WQvpPAwBXYaMgC+hGmYMeKfB9naRQs6wmEpPGpZJba9dWJgk/mlta6P6+nqbwtms1Z57JcXFNGjQIPHgYYutFWfrNt2UWLlyZUbWEDftoS4IBJEABHQQvQKbbBFQckizkC4/7RJbdVDIWwKKiNbmd81GSHtrGVqLCgGDRc7e4VnpV6v6vQ3pnOht061TLOMS527uOwqEaC5MFooHEDmkoqvT4kFEm0bzduGKcN5/4ICt7Dh9dmWe2ew2s6LqysbPPiO2BQcIRJ0ABHTUPSzB+FhIH33rHJFHmrN34MgtARbRH3/8MXG+aO0BIa0lgvdeELDKpWwlqq12HSQqEBuhcNaNbA4O0eAjkYhTsqiIOJSira2dd1cxbs6uei0gsdLMm6v061dGB2pqRAy1ccM9dwoKVH/u1X2pz60asbi/f/9+xD1bMMLt6BBQ/UZFZ1AYiZwE1Dmki48YKSeEPI6at/3WE9FsEoR0Hh2DrgUBK52oFt3d3d09m6Wo2akLqK8r5zr3edfAttYW6urqZE3u4uipzLmdK8orqF9ZmciEU1dbZzvDBo/J7ZEWQqMZT0tLK/I9uwWM+qEiAAEdKnfBWDsEWEif8OBi5JC2A8vjMmYimrtSC+n169d73DuaizQBSwWsUXQuYPCKsReC09QEoWft2czCmTN2VFSUU2NjA9XV9Qlney2YWqJzU92q+lynaOrSBys+QNyzMR7ciSABCOgAODXtW30A7ImKCUoOad6MBTmkc+dVFtEbNmww7ZCF9IMPPkgPPfQQQUibosJNFwSspJ/2fowKqKOzU2Td4G61912Y0lfV4ReBstJSqqysoMamRjp48CDxqrb2sGpSW97r92vXriUO38ABAjIRyHJ7IpkQYaxhJ8BCuvz0H9CBpfPowDvzqLO5PuxDCrz9vPU3x0afccYZprauW7eO+Gf48OGm5XATBGwTsFKTrIoNohn4oUGR+s20M5MGuJ5V/6Zt990sKS2lAQMGUGtLC9XXHBShGj2LLQbG91W1fWYxElvtfL1nD326caOtsigEAlEigBXoKHkTYzEkoM4hjc1YDDF5eoPjoXk12s7BghsHCDAB1w8IZomxu6srM+451ZbVfwmtbE43yVwAJ5OFYsW5s6NDrDi3tma3DXYB70JYWCi69mUlPZX//cMPP0wfHt6BgCQEIKAD4mjf4+0CMs58m6EI6eMfWIwc0jlwhhMRnQNz0EVUCbhWiAUixZy3eJwZxcK5orKSEvE41dbWUVubc+Gs7pHFc1dnJ/HGLYmUkHY6PnV72rqdnV1iMyXeNAUHCMhIAAJaRq9jzKTOIV157lgQ8ZEAi+hly5YZru752DWajjIBt6ESqfq8utze3ub8oUG3/ad8E0skqKJ/f0oWJqmutpaampvFnSreGCUeN/CgmbTtqcICnOvzxi28M6HpYd1cRvW/f/J32rdvX8Z1XAABWQhAQMviaYxTl4AipI+750VCDmldRJ5c5C2/eetvjouW7cB/l7LzeBaaznFHHObAc1Js0y1qm/dqGcqhqd5psmFKQTxO5eX9qbSkmOobG6mhsTEjftqqP6MB8+pzUbJIPHDYs3GL8uChysBsvwAUEH3xxRe0EXHPRvhxXRICENCSOBrDNCegziENIW3OKlwtWOEAACAASURBVNu7sopoCGj7M8ZKMFrdt+pJJR9FUY4z5qwbvh06qep4DKWlpVTer5/YAKWxoZG6DDZY0dprZSdv2lJcXCw2geHQCtFutkJZ3ZmqjXr+Moy4ZzUdnEtKAAJaUsdj2PoEFCF99MTZVDjwCP1CuJo1AUVE8ysOELBFQCXedMtb3TdIRsdfbOz9R8SpjO2xMlmUzDA3mUyKkIqW1jaqO8S5nFMPFJo/V5jRjvYCi+bBgwaJ+OmWlhbi+OTsDvVY1ec9rbV3dNAHK1Yg33N2cFErYgQgoCPmUAzHGwKc9m7EtOXYjMUbnGmtQESn4cCbfBDo7qYOs3CiTO2osdK8gPZuYSIVUiG29G6jbt6ZMMtD/X0hkUjQwIFVxMJ83/791NTU5LhVra1mDXBWHc7hjgMEQIAIAhqzII0AfyDzjldDStIuS/tG2YwFqe+8nQK88scx0ViJ9pZrVFqzDNWwUn1qlamBwm23tbc7f2hQ047V24KCnjRyHFbBq92tbW29G7To1jUZk3Y4sVgBDRw4kPr14y29D9r7PVK1rzrVNUXv4q5duy03SNKrh2sgEFUCENBR9azDcSnCmcUznw8tzeYj1mGnISo+5Iq76aRpywlC2junQUR7xxIt2SOgPDTIOZ/9Prq7u6izq5P4IT7eoMX+YfzZy6K8oqJCpLurO3SIalVbeivtq3NSG7eklLZ+ZfF+qK6OeKtuHCAAAn0EIKD7WEh5phXOUkKwOWglhzQLaaS+swnNopgiojnVHQ4Q8JyAeulWpKtrJ35wUDnUYlO55uTVqn5vjLOTRg3KlvUrEzsTNjQ00MGag2njMKji7LKKleqU2ts7aPl77xHHVuMAARDoIwAB3cdCqjMI5+zdzUL6yBufoJOmLoOQzh5jb00W0RxbCRHdiwQnKQJWoRxOVlh5i27rbbqt0avFpV5ptsnNM4HaMZWUFItwDRb+NTUH+sZgZYiecRnXtL1lFKCPPv4Icc+ZWHAFBBADLdscgHD2zuNKDmkW0kh9554rRLR7hmFvgUPIDJJm9A0tG+GoyrhhJcr7Osr+TJu60Eqm6t3nBwM5zpmPmpoadyvAKmZ6fRmNdOu2bcj3bAQH16UngBVoSaYAhLN/jmYhzRuxYDMW94whot0zDHML/DmVzWEmClkw8385zA6z+mb1eu+5bqC3JYrHY1RZWSFS0rFwbm52EDqhEsqxWIwKk5mp9Pp6Mj+rq6uj5cuXmxfCXRCQmAAEdMSdX1RUJB46UR4OjPhw8zo8JYc0C2nkkM7eFSyi+QcHCLglEBMZNwy26VaJTf1+LFSxxW39NvuuauOn47EY9S8vp5KSEjpUd6h3S291jb7zvjOjFfVEYYK6RD7obuK2zQ71UPicv3C89fZb1KGKFzerj3sgICMB898qGYlEaMz8QVxWVkbxeDxCowr+UFhII4e0Oz9xPDREtDuGoa9tIXCNhKMybr7P6eq6cpBxQ+nT6lWxWR3iwdf69e9PZaVl1NjQIHYn5K3F1aKW203Dob2p03FrSyu1tbdRSXGJyBPthMP7779PBw4c0GkVl0AABBQC2f2/TKmNVxAAAUMCnEOafw68M4/2/vVp6myuNyyLG5kElIcKzzjjjMybuAICFgT4gUHtCirrTrMH/FikdpsVsOhTuV1ZUaGc6r52pEQ953HmsBVecW7nVHdasS9Us3ODuro6qbikRISBNDY19Qrz5mbrjVY+37SJ+AcHCICAOQEIaHM+uAsCrglUXXQTVbKQXjpPiGkIaftIWUTzv5NZRBcWFtqviJJyE+CHBtt64p4tRbOFqBZLv2YaVkd1J1RzlVeYtaK8pKiI4rzi3NRIDQ2NxDmj3R48zlg8ToXJQuqXLBOx0wfr60UO502bNtOmTZ/rhIWk91pbV0tLly5Nv4h3IAACugQQwqGLBRdBwFsC6hzSvBkLDvsE9uzZI3YttHoQzH6LKBl1An7PlbRwCh2YSqiG9hYL3KLiIrEKXltbS62tbdoi4r1xhIb2Ts97XsUeNGgQHX7YYWKJ/WBtLR2oOUCfff45vfPOu7Ru3VpqNsrjnBoMM/vf117TtUeWi7w7Kg4QsEsAAtouKZQDAQ8I9App5JB2RJO3/OY/bn4LI0dGobBvBIwEqJ0OO9o7TMM0etrQCtH0lt30n95SqrdYjEqKi4gzY3BscouBcNarm2pBdavPdt7Sm3cmPGLYMCouLqZ6sTthLX2xe7cQzqtWrqSDtQdVdZXTvjaUK5xxg4U3DhAAAXsEIKDtcUIpEPCUgDqHdPlpl3jadlQbg4iOqme9GVesIEZdvFlKV2dWDWqzYmgbyZSc6SX0RDcL3GSyUMQ5s2jusEinl96i+bt+Zf3oyCOPFAK6qblZ7E4o/lvzwQp66+23ad++vWkPIprZ/9lnnxH/4AABELBPADHQ9lmhJAh4ToCF9NG3zqHGzavEg4b8isOYAItoXik7++yzSWy6YVwUdyJGgAWqOnuFdnj80GC712nXdOKb1f2K6AeT+GhecW5rbSN+qE+vWO+Y9G6qO1Kdl5aWCNHM2ZUa6utFXHN9fT198sla2rlju8g80tuuqp7Rae3Bg7TkrbeMbuM6CICAAQGsQBuAwWUQyCUBdQ7p4iNG5rLr0PXV1NQkwjlYTOOQnEAqfpf1Z3tH5mYpZquuglyqvl8UOzsyV8N7bDJWzEY2FxUV05AhQ2jw4MEilIljqA/U1Ajh/Mbrr9O2rVsdf4Ho6GinRa++6tfw0S4IRJoABHRA3Gu2spIPE8uQ8CAf2MWW4Cc8uJiOuPFxbMZi4gGOheaYaIhoE0gS3Wpv038YTxeBS9FsJHB1+/LgYiIRp4EDB9CQIYOpgLqJhTOvGtt6QFCvf9X433xzicg7rVcM10AABMwJQECb85H27vDyXP+ZkBa17sA5fzQ2Y9FF03sRIroXhdQnnOuZNx7x89CLb1b3Zxk/rRKt6nrKefqnbc+7gliMyvv3p8MPP5yKkkXEYRq1dXXEqR2Xvvsu8QOCtQdrlCYyXtPa1Ol/3bp1tHnL5ox6uAACIGCPAGKg7XFCKRDICwEW0uWn/wA5pA3os4hetmwZjak62qAELkeBAAvUbp0oYr3NUvTG2yNwvRXZLFDNWrQS1eIJP4MG+vfvL1ac+/XrJ4Qzhy3xzoAb1m+gHTt3GMaCW9mksNm/fz+9/fbbylu8ggAIZEEAAjoLaDJUOa2qgP6cIGrskGG0wR6jkvquasxNENIGrlr/2SZiMYVt6w0ARfAy+7vT5KFBXnR1szDttj4j1xP9Zq4oKSulspJSke6uuamJampqhIBeu3Yd7dixnRyFqhh0xF86FyxcYHAXl0EABOwSgIC2S0qycqdWFdC8ixP0p+1d9OIm97tkSYbPl+EqQpp3Ndz72tNUu3KRL/2EtVEWBnxARIfVg/bt7u7qytim215tu2u0Rq2lBUZkFFKvlBfECqhTuzW3wbJzYVERDSgrJd7BsLGhgVpbWylZVEQsnMUOgk1NhqvOGUaYXGDrFy9eTM3NzSalcAsEQMAOAcRA26EkaRl+kPDHJ8Xod2PixIIaRzAIqHNIV547NhhGBcQKFtEcE4sjmgSUTyGjdHXKfU9Hb9Go0e3CROpJbKMC/GUvFqOBAyqpqmqgiOOuqztEhw7V05at22jjxo09Owh6KHZXr15N27Zt8xQPGgMBWQlAQMvqeQfjHlpaQDPOi9Mvzo7TkFKTvwYO2kRR9wQUIX3cPS+K7B3uW4xGCyygldXoaIxI7lGkPcBXUCC+IPEKtHJYxxpbfGbpPGCntJ3ta0lJiemKMeeHHlBZSUOHDhGrzryD4KG6Ovr6qy/p3XffpTWr/48am5qsu1fbbjFM3mRl6TvvWLcpcQne1REHCNglgBAOu6QkLsd/wPjf4qOPLKDRRxJVb2ynRVs7qbHd4AkYiVnlY+hKDmlsxtJHn+Nj+SgsRD7GPirhPuPPobY23pSkTzwbjYi1pNmnkxfxzUZ983VOPWcU/8yhHYMHVlFndzc1NNRTc0sL1Rw4QOvWrycWueovB3p9MAenaU85dnrBwoV6zeEakdjR8b777qPrrrsOPEDANgEIaNuo5CuoCGd+VR83jiykS49J0DNr22nF15kbBajL4jx3BBQhfeiTJfT1wmnUXvNl7joPYE8Q0QF0iguT+D8Lik+zEZGWXQtVbVkqqwJC8HZ1U1FREbHtDY0N1NLSIrbf3rRlM+3euYva241zWVt9ITA0KvVN4c//8z+Ie9aBxFuhQzjrgMElWwQgoG1hkquQkXBWU+CwjinnJumT/V1CSG+rs14VUtfHuX8EOO0d/xxc+YrYHlwGIR1P/47XC5cFF4sXXonWfhHsLYSTwBDgtG16B6/mWoXl9DzAp1e751rWItS4Scs73GdHVxcVFxeL/+I1NTSKrbdZQG/duk3sHtjU3ETdXWbr5ZbdpBXQjvPjjz+mrVu3ppWR/Q2Es+wzwJvxQ0B7wzESrdgRztqBnj4oRrPHFNGiLR1U/VkHwjq0gPL4nnNI88/evz5NB96ZR53N9Xm0xt+uSxIGCppI/Muf//WfTCYhov11g+vWOf+x9uAvQO1tmdt0i3Liv2Mm4jO1AqttU3lvWd0iFIQMsmooFrFwjhXEqKWlmerrG6i5uYl27/6CPv30UxG+oS+ctRJYsdb56xdffIF8zypsEM4qGDh1TQAC2jXC8DeQjXDWjnrsCQm69Jg4VW/soFe3IguClk8+3w+54m6SPYc0izCI6HzOwuz65s8mDt0wiifOplUreWp1nyxEeY+o7rOsrq6OeJWZN0L5+9/+TnV1tdSV7YqzZd99/XKIyIIFyPfMRCCc++YFzrwjAAHtHcusW8rXv5a9EM7qQfcrLKB/O43jo+MirGPtfoR1qPnk81zJIc1CumdF+vl8mpOXviGi84I9607584nDNpS456wbykVFHdXd3NRMHZ0dqQcEN9CePV8bh2ro1FfMZg48d50eryxaJH3cM4Sz01mD8k4IQEA7oRWRsl4LZy2W4ytiNHN0Eb25q1Nk7PimyfmHv7ZNvPeGAAvpw6/9BVVddJOUm7GwEBGbVCSTYrc3b6gat2InY4RxbbnvsHDuaO/5bxbrS7PDRH/2VBMrtyYtWKzsWvWvbbmjrZ0OHjxI/IDgLoMHBK1sdtqnsCE1jg8++IB27NihNUua9xDO0rg6rwOFgM4r/tx27rdw1o7m0qPjdP7hMXo1FR+tvY/3+SOg5JAecvnd9GX1z4lT4Ml0KOEcnI8XR/AI8BcPq4cGLa22EMVW9dW7ClqV1d4/WHuQtmzZKmKe9eOctTWyf6+1c/uOHfSOpPmey8vLacKECSKzRvZEURME7BGAgLbHyZdSLGhzceRaOKvHxGEdStq7J1a3EcI61HTyf85CmjdikTGHNER0/uefkQUc98yfW17GPhv15ei6nWXjbhIPCeoKZ6v6jozJLNzQ0ECvvPJK5o2IX1GE88SJE4nP+eD/NuXqb2zE8WJ4BgQgoA3AROFyPoWzlh+nveOwDk57N3N1GyGsQ0sov++VHNIspL/4w39Ik0MaIjq/807bO/uDV56NYn6t9KcQTGbxwhYNCNFuVl9rsJ33Oezzj3/8IzXZ2cHQjt0hKKMIZ151VoSzYrYiniGkFSJ49ZoABLQO0Vz9wim/4DomuLrE7fLOgX6178Y4TntX/cNi7GboBqKPdVlIj5i2XKoc0izaOE80/87gyC+BhQsX0htvvEEnn3wynXTSSXTsscfS4MGDfTXKQt8aJKrz1aSsGuewDU5bJ8NhJpyVL1/K3z/lNVd/12XgjzH2EICAzuNMUK8UKL/kbszhNoIqnLXj4rCOq0/o2c1wyS7sZqjlk+/3Sg5p3oxlz8Jpkc4hzayVeFuI6HzPPKL6+npatWqV+GFrSkpKaOTIkXTiiSfSscccQ0OGDk0zkj/3vF40FqnqzDcDN88QLcLzTB6etlLtQranDdP0zfbt22nZsmWmZaJw00w4a8cHIa0lgvdeE4CA9pqog/Y2bNhA//AP/+Cghn7RMAln9Qg4Pvo/zkzSpcdgN0M1lyCds5DmXQ0PLJ0X+c1YIKKDNPP6bGlubqY1a9aIH77Kgvpb3/oWHX/88XT00UfTgAEDKK59GNTlA4R9vds/0z7MZ7+mUtJEVZuMp76hnl5++WWlkUi+OhHOWgAQ0loieO8VgYJuZXZ51WJE2vFiRdgOCl45UA6nGQHCKpyV8WpfOe3dM2vbsZuhFkxA3nc2HxJCeu9r/xUQi/rMGH76ufT+/y7qu+DijFehOaTDi4OzSXCISBiOYcOGhcHMDBtZUB933HF0/PDhdNTRR9OgQYPEf+KYPf/wnzh+oK+rWznvud7Fy9bd3aIMn/eUS9Xh9eXOrvQ6XFa0xWW4fJem3Z4+xD1+/FFVv9cOpb7yyu1Qjw29Noq2u2nkySPpWyNH9tiVslPYqDmfPXt2ZEM33AjnjImSuqD9285MtdeM6mZzndvmrdS/973vZVPdUR0eC47cEcAKdO5Y6/a0Z88eOuywwwwfmtGrFDXhrIxRSXuH3QwVIsF6VTZjqeTtwV97mmpXeiNYgzVK6t24wysRHbTxRc0eXqHmrbH5hw8W1JwHePjw4eJ1yODBFIv5FN8uVobNiJqsKnM1i9tmLfM9jhePYtyzH8JZYamITEU0K69+C2mlf7xGhwAEdJ59+de//pVuvvlmW9+Aoyqc1S7AboZqGsE8V+eQ5vjoQ2vfCqahLqxSdr+DiHYBMU9VWVBv3rxZ/LAJiURCPIzIDyQeMewIGjR4EMVEjHJ2BvYILuOVPpNoC3sd2hTVmzZtovfee89emyEp5adw1iKAkNYSwXunBCCgnRLzuPwjjzxCV199NQ0cONCwZRmEs3bwym6GK77uCetA2jstofy/ZyF99K1zIptDGiI6/3PMCws4p/SWLVvED7fHgvqII44Q8dP8WlVVJa719WVTwfZVcH3mNH66traWFixY4LrfoDSQS+GsHTOEtJYI3tslAAFtl5SP5aZMmUJPPvkkJZPJtF5kFM5pAIjo/MPjdNqgnt0MF23tRHy0FlAA3qtzSO/969OR2tWQRTTHr/LvZs/KYwCAwwRXBFhQ79y5U/xwQyyoOf77qKOOoqFDhoi0efGE9k+jO1HtVCCbDZDn4/z58yOR7zmfwlnLGEJaSwTvrQhoPyWsyuO+DwT+8pe/0AUXXEDXXnst8YOEEM7pkNW7GfJDhrwqjSN4BBQhzanvWEi313wZPCOzsIj/sCobrkBEZwEw4FVYUO/atUv8KKYefvjhQlAfNvQwGjSoiuK6MdTmolpEiRhHepBIlWfy0Be3rncsXryYdu/erXcrNNeCJJy10PwQ0k4TBGhtwvtgEoCADohfeIWLHyjkh1+Qi1bfKbyb4ZRzk9jNUB9PYK6qc0hHRUhDRAdmeuXEkK+//pr4Rzn4Qe8jj+D46cFUNXAgxeP+/Ok0W6nmL29r166lFStWKGaF7jXIwlkL0w8hre0D78NNwJ9PgXAzEdbzL08uV5t484ChQ4dCPNuYO8puhou2dFD1Zx0I67DBLB9FopZDGiI6H7MoGH3y4gb/KAenyuP46SFDhujnoVYKevi6d+9eWrQovJlvJk2aRHpbbnuIyJemtFpA0QXa6750jkYDTQB5oE3co/yimBTx/BYnxD/33HM1D7V43k1kGmxo7xa5o7GbYbBdquSQPvDOPF92NfQyD7QdkvwfIzv/luV4VeSBtkM03GUqKyro8GHDhKCurKikRGGCqKuLOrvUuaZVeahTead780NznupUzmqRr7qrm04+eSSNSOWBbmlpoTlz5qSFmYSF2I9+9CNi8cwx5mE/9DSBlZDmOrzfw3nnnef78NkWHLkjgBXo3LG21RN/2Jxyyin0zDPPiJ22bFWSuJB6N8Pqje20dn+XxDSCO/So5ZBWYqLtiOjgegWWeUWgtq6O+Gfjxo2iyYqKCpHff/CgQVReXkGJuMM81JoA6Ndeey104jlKwlmZJ4pAVQtp5dxKSCtt4DU6BLACbeJL5RfDpIivtx544AG67rrrxKqGrx1FqHHsZhgOZ7Yd+MLTzVhyvQKtULZaicYKtEJK7tf+/fvTYUOHUlUVC+r+4r8XLLiUVWfehZB3NuRdDJUdE8866yyxs+Inn3xCv//970MDMIrC2Qi+nkbQCmn+kr1t2zasQBtBDPF1CGgT5+n9cpgU9+0Wr0Zffvnlnm0v7JuhAWmYwzpeTcVHB8QkmGFAoOWLT+nrhY+4Tn2XLwHNw+LNVowe/IWANnC85JdZUPPDiAMGDCB+sC4RT2QI6AsuvFDsivmb3/yGGhsbA09MJuGsdYaeVlCENKdJ5K28OTTT74P7xJE7AhDQFqz1fjEsqvhye8SIETRr1iw6/fTTfWk/io3y5itPrG5DWEcInNu4eZVIfcev2Rz5FNBsr5GIhoDOxpvy1eHtxwcPHkyVlZXUv6wfxeIxOuecc2jBwoW9+aqDSkVm4az1iVYv8HsWtZzR5bvf/a62uOfvIaA9R2raIAS0KR5O1akJRrMo7/ft8ePH07333isydvjdV1Tax26G4fHkoU+W0NcLpznOIZ1vAc2E9UQ0BHR45l6QLGVBXVFeTnu++SZIZqXZAuGchiPtjaIbePX5wIEDxLm777vvvrQyfryBgPaDqnGbENDGbMQd5RfBoljOb/MW4BwfXVZWlvO+w9ohP2SI3QzD4T2nm7EEQUAzWa2IhoAOx3yDlfYJQDjbY9Xc3EyrV68WGTjWr19P1dXV9ipmWQriOUtwLqrFXNRF1TwSmDx5Ml1xxRX0/vvv59GKcHV948hCmj2mSGwPHi7L5bOWc0iPmLachlx+F8VL+ocGQHt7O/EPDhCIGgEWzqtWrRKhhFFISeeXfzhDz0svvSSyaD366KO0f/9+Wykv/bIH7fpHACvQFmyDugKtNvviiy+madOm0bHHHqu+jHMTAp/s7xL5o7fVIe2dCaZA3LKTQzooK9AKMH6okFejsQKtEMFrWAlgxdme5zo7O2nNmjV01VVX2avgcSmsQHsM1EZzENB2IAUsDtrI5HvuuYfuuOMOhHUYAdK5jt0MdaAE9BILad4a/MA7z2dYGDQBzQayiOYfbKSS4S5cCAEBCGd7TmLhumHDBrr00kvtVfCpFAS0T2BNmoWANoGj3ArDKrRiK7/ybob8BDevgOGwJsBp76o3dtCrWzusC6NE3gno5ZAOooBmUPzZEZY/bMOGDcu7b2FA/glAONvzAf9e79y5k26++ebeDXTs1fSnVFg+Z/wZfX5ahYC2yT1sInrMmDH00EMP0ciRI22OEMW21vWEdWA3w3DMBRbSX1b/XOSQDqqADgfJHishoMPkLe9thXC2z7SmpoZ+9rOf0Ztvvmm/ks8lIaB9BqzTPAS0DhS9S2ET0MoYOKxjwoQJImG/cg2v5gR4N0PO2MF5pHEEnwDnjj6+5iP6w4yfB9/YAFsIAR1g5/hoGoSzfbgNDQ30q1/9iubPn2+/Ug5KQjznALJOFxDQOlD0LoVVQCtjee655+iSSy5BWIcCxOIVuxlaAArY7Ru/lSDOsoIjewIQ0NmzC2PN8847Dxk1bDqOU9K98sor9POfB/NLOgS0TUd6XAwC2gHQsIvoE044QXxg5mJHJAdYA10UuxkG2j29xkFA96LI+gQCOmt0oarIwnnSpEl0/vnnh8rufBjLmTWWLFlCP/3pT/PRve0+IaBto/K0IAS0A5xhF9DKUG+44QaxK9Jhhx2mXMKrBQFOezdzdRvCOiw45es2BLR78hDQ7hkGuQUIZ/veYUG6cuVKuuaaa+xXymNJCOj8wIeAdsg9KiKah/3UU0/R2LFjEdbhYA5gN0MHsHJYFALaPWwIaPcMg9gChLN9r7AQ3b59O9100020efNm+xXzWBLiOX/wIaCzYB8lEc1hHdOnT6dRo0ZlQULOKhwf/czadlqyq1NOAAEcNQS0e6dAQLtnGKQWIJydeWPv3r00bty40AhnZXQQ0AqJ3L9CQGfBPEoCWhk+p72bOXMmIaxDIWL9it0MrRnlqgQEtHvSENDuGQahBQhnZ17grbYfeeQRsX+Cs5rBKA0BnT8/QEBnyT6KIppRPPzww8Qx0mVlZVmSka8ap73jFenGdqS9y5f3IaDdk4eAds8wny1AODuj39TURAsXLqT777/fWcWAlYaAzp9DIKCzZB9VAa3gwG6GCgl7r9jN0B4nv0pBQLsnCwHtnmE+WoBwdkadM2u88MILoRfOPGqIZ2e+97o0BLQLolEX0RzWwf/aOvbYY11QkqsqdjPMj78hoN1zh4B2zzCXLUA4O6PNwnnVqlV07bXXOqsY4NIQ0Pl1DgS0S/5RF9GM5+677xa7GQ4cONAlLXmqr/i6J6wDuxnmxucQ0O45Q0C7Z5iLFiCcnVFmkcmZNaL2oDzEs7N54EdpCGgPqMogohkTdjN0NlmU3QwXbe1EfLQzdI5LQ0A7RpZRAQI6A0mgLkA4O3fHzp07afz48aHLrGFnpBDQdij5WwYC2iO+sohoTns3Z84cGjlypEfkot8Mr0LzQ4a8Ko3DHwIQ0O65QkC7Z+hHCxDOzqmGPbOG1Yghnq0I5eY+BLSHnGUR0YzsnnvuEd/skfbO/gTCbob2WTktCQHtlFhmeQjoTCb5vALh7Jw+Z9aYO3cuzZgxw3nlENWAgA6GsyCgPfaDTCKa0c2aNYuuvvpq7GboYB4t2tJB1Z91IKzDATOrohDQVoSs70NAWzPKRQkIZ+eUW1tb6Y9//GMkMmtYjR7i2YpQ7u5DQPvAWjYRzWEdLKS/+93v+kAzmk1iN0Nv/QoB7Z4nBLR7hm5aOPLII2nq1Kn0j//4j26akapuFDNrmDkQ4tmMTu7vQUD7xFw2Ec0YsZuh88nEYR3VG9tp7f4u55VRo5cAcFUrwAAAHCxJREFUBHQviqxPIKCzRueqIgvnSZMm0XXXXeeqHZkqs5D8/PPPxd8c2cYt03iDPtZY0A0Mq30yflNcunSpWIV+9tlniWPRcFgTOH1QjGaOLqL7zkxSWWGBdQWUAAEQiAQBFs5PPfUUffTRRxDPNj3Kf1e3bdtG3//+9yGebTJDMf8IYAXaP7a9Lcu4Gn3iiSfSr3/968jl3ux1qg8nSto7jo/G4YwAVqCd8dIrjRVoPSreX8OKc3ZMo55Zw4yKjAtyZjyCcg8COkeekFFEM1rsZuh8gnHauydWtyGswwE6CGgHsAyKQkAbgPHoMoRzdiAbGhpo8uTJ9PLLL2fXQMhrQTwH14EQ0Dn0jawimhHzboZ33nknlZaW5pB4uLvCbob2/QcBbZ+VUUkIaCMy7q5DOGfHr6WlRYjm+++/P7sGIlAL4jnYToSAzoN/ZBbSvIpw7rnnUiKRyAP5cHbJDxliN0Nz30FAm/OxcxcC2g4l+2UgnO2zUpfkzBrLli2jn/zkJ+rL0p1DPAff5RDQefKRzCIauxk6n3TYzdCcGQS0OR87dyGg7VCyLgPhbM1Ir0RXVxetWbOGrrzySr3bUl2DeA6HuyGg8+wnmYU0h3XcdtttVFFRkWcvhKd7TnvH24Jvq0PaO7XXIKDVNLI7h4DOjptSC8JZIeHslcXi9u3b6aabbqLNmzc7qxyx0hDO4XIoBHRA/CWzkH7uuefoBz/4AcI6HMxF7GaYDgsCOp1HNu8goLOhRgThnB03rvXNN9+I52OWL1+efSMRqQnxHD5HQkAHzGeyCmnsZuh8InLau+qNHfTqVqS9g4B2Pn+0NSCgtUTM30M4m/Mxu1tXV0e/+tWvpM2soWYD4aymEa5zCOgA+ktWEc2uuOGGG+g///M/afDgwQH0TDBN2lrXE9Yh826GENDu5yYEtD2GEM72OOmVQmaNdCoQz+k8wvYOAjrAHpNZSM+aNYv++Z//mUpKSgLsoWCZ9uauTrEtOD9wKNsBAe3e4xDQ5gwhnM35mN1tb2+nN954gyZOnGhWTJp7EM7RcDUEdMD9KLOI5rCO6dOnYzdDB3NU1t0MIaAdTBKDohDQ+mDKy8vp4Ycfxnbb+nhMryKzRiYeiOdMJmG9AgEdEs/JLKR5N8OnnnoKYR0O5qpsuxlCQDuYHAZFIaDTwbBwnjBhgvjhcxz2CbBI5Mwao0aNsl8p4iUhnKPn4Fj0hhTNEfEvn6y/gEuXLqXTTz+dnn32WeIYOhzWBIaWFtDM0UX0xOgi4nMcIAAC9giwWJ40aRJ99NFH4hXi2R43pdSXX35J119/PcRzCojMf7uVORHVV6xAh9SzMq9Iv/rqq3TWWWdRPB4Pqfdyb3bUdzPECrT7OSX7CjRWnN3NoZqaGpo6dSoya6Qwyrrg5W4Whas2BHS4/JVmrcwimsM6ZsyYIXKwpkHBG0MCHB/Nm7As2dVpWCasNyCg3XtOVgEN4exu7jQ1NdHMmTNp9uzZ7hqKSG0I54g40sYwIKBtQAp6EZmFNO9meMcdd1C/fv2C7qbA2BfF3QwhoN1PL9kENISzuznT2tpKS5YsQWYNFUaIZxUMCU4hoCPiZJlFNLuwurqavv/97yOsw8F85rR3vCLd2B7+tHcQ0A4cb1BUFgEN4WwwAWxe5swaK1eupGuvvdZmjegXg3COvo/1RggBrUcl5NdkFdOc9m7evHl0/PHHh9yDuTM/KrsZQkC7nzNRF9AQzu7mCIvEtWvX0mWXXeauoQjVhnCOkDOzGAqycGQBLehVZP2l3rJlC40ePZoef/xxqq2tDbqbAmFfv8IC+rfTCumZMUV02iB8HATCKTDCUwIsnJFVI3uk/PdEyawB8dzDkZnI+nc2+5kUvZpYgY6eT9NGJOtqNEN45pln6J/+6Z8Q1pE2I8zfrPi6J6wjbLsZYgXa3K927kZtBRorzna8bl6GM2vcfvvttHz5cvOCktyFaJbE0TaHCQFtE1SYi8ksojmsg/NHjxgxIswuzKntym6Gi7Z2hiY+GgLa/RSJioCGcHY/FxoaGujJJ59EZo0USghn93Mqii1AQEfRqwZjkllIc9q7//7v/6aKigoDOrisJcCr0PyQIa9KB/2AgHbvobALaAhn93OAM2u89dZbYvdF961FowWI52j40Y9RQED7QTXgbcospJ944gkaN24cJZPJgHspOOZx2ruZq9soyGEdENDu50tYBTSEs3vfc2aN1157DSnpVCghnFUwcKpLAAJaF4scF2UV0ieeeCL95je/odNOO00OR3s0ykVbOqj6s45AhnXwluWn4yFIV54Om4CGcHblblGZhfO6deuQWUOFEsJZBQOnpgQgoE3xRP+mrCKaPcthHbNmzaJBgwZF39EejTCouxlCQLt3cJgE9C233EL33XcfsYjG4ZwAi8SvvvqKbrjhBtq8ebPzBiJYA8I5gk71eUjIW+Uz4KA3zx8asn5wLF26VKxCc2x0e3t70F0VCPs47d1/nJkkFqxIexcIl0hlxI9+9CNatWoVTZ06FeI5S89/8803dP3119PZZ58N8Uwk/v7J+jcwyymEaikCWIHGVEgjIPOK9Ouvv06nnHIKxWL4Xpk2KUzeBGU3Q6xAmzjJ5q0gr0CzcOZczkcddZTN0aCYlkBdXR09/fTTyKyRAgPRrJ0heO+UAAS0U2ISlJdZRHPau4ULF9KQIUMk8LQ3Q1TS3nF8dL4OCGj35IMooCGc3fuVM2u88MILNHnyZPeNRaQFiOeIODLPw4CAzrMDgty9zEL6oYceIo6zLCoqCrKLAmUbZ+l4YnUbrd3flXO7IKDdIw+SgIZwdu/Pjo4O4v+qTZw40X1jEWkBwjkijgzIMCCgA+KIIJshs5BevHgxfec73yGZGTidm/nYzRAC2qmXMssHQUBDOGf6xekVZNbIJAbhnMkEV9wTgIB2z1CKFmQWkJz2bv78+RQEgRGmyVa9sZ1ytZshBLT7mZHP+Q3h7N5/LBJ37dpF5513nvvGItIChHNEHBnQYeBpqYA6Jmhm8QeRrB9GnObprLPOomnTplFTU1PQXBNYe24cWUizxxTR+YfHA2sjDMsvARbOnFWD00niAcHsffHll1+KzBoQzz0MZf57lf0sQk2nBLAC7ZQYygsCMq9I80OG55xzDsXjEIZ2fx14N0PeFnxbnT/x0ViBtusJ43K5XIHGirOxH5zcQWaNdFqyLvKkU8C7XBGAgM4V6Yj2I6uQ5mwd1dXVdMwxx0TUs/4My6/dDCGg3fsrFwIawtm9n7gFzqwxe/Zseuyxx7xpMOStQDiH3IEhNR8COqSOC5LZsopo9sG4cePo0UcfpdLS0iC5JNC2cNq76o0d9OpW79LeQUC7d7mfAhrC2b1/uIW2tjZ68803kVlDhRPiWQUDpzklAAGdU9zR7kxmIc2r0RdddBE2YXEwxbfW9YR1eJH2DgLaAXiDon4IaAhnA9gOL3NmjTVr1tCVV17psGY0i0M0R9OvYRsVBHTYPBYCe2UW0h9//LHI1iEzA6dTlHcz5IwdnEc62wMCOltyffW8FNAQzn1c3ZyxUNy6dStdcMEFbpqJVF2I50i5M9SDQRaOULsvmMbL/AF39tln09SpU6mxsTGYzgmgVZceHadnxhTRjd9KBNA6mOSEAAtnZNVwQky/LH+GKpk1IJ57GDETmf+26M8UXM0nAaxA55O+BH3LvBI7Z84cuvzyy5Gtw8E8z3Y3Q6xAO4BsUNTNCjSnT+Mvjt/+9rcNWsdluwQ4s8Yvf/lLWrBggd0qkS4H0Rxp94Z6cBDQoXZfeIyXWUivWLFCZOuQmYHTmcpp72aubrMd1gEB7ZRwZvlsBDQL50mTJtH555+f2SCuOCLA/7WaOXMm8RdvHITVZkyCwBNACEfgXRQNA2VeRWBxcdddd1F9fX00nJmDUZw+KEbVPywWYR1lhQU56BFdOCHAwpnzob/yyisQz07A6ZTllHSLFy8m3vEU4rkHkMx/L3SmCC4FlABWoAPqmCibJfNKLP+BvOyyyyiRQLyv3TnOae94E5YluzoNq2AF2hCN7Rt2VqCx4mwbp2VBzqzx4YcfilSYloUlKADRLIGTIzZECOiIOTRMw5FZSC9fvpx4MxYc9gmY7WYIAW2fo1FJMwEN4WxEzfl1Fs6ff/45XXzxxc4rR7QGxHNEHRvxYSGEI+IODvLw+ENT1g9OfrL+zjvvRFiHgwnKYR2zxxTRfWcmCWEdDsC5KIpQDRfwNFX5s44za4waNQriOcVG5r8BmumBtyEkAAEdQqdFzWRZRTTHj44YMYJefvll6ujwble+qM0P7Xg47V31D4vo6uMRBqNl49V7CGevSPa0s2/fPrrnnnuI01zu2LHD28ZD2BqEcwidBpMzCCCEIwMJLuSTgKxhHcceeyzNnTuXRo4cSbIyyGbeKbsZ3jiykHiFGkf2BDiEA6Ea2fPTq4nMGulUZF0sSaeAd1EhAAEdFU9GaBwyC8hrrrmGHnnkEaqoqIiQRzGUMBDgdItIR+eNpzizxp/+9Ce69957vWkwAq1APEfAiRhCGgEI6DQceBM0ArKK6VmzZtG//Mu/UDKZDJpLYA8IgIABAQ7F4p0Yx40bZ1BCrssQzXL5W7bRQkDL5vEQjldWEc1hHbNnz6ZTTz0VYR0hnLcwWR4CyKyR7msI53QeeBdNAhDQ0fRrJEclq5Dmp/afffZZhHVEclZjUGEmwEJx165ddP311+PhwJQjIZ7DPKNhuxMCeOrGCS2UzSsBWT+Y33//ffFw4bx586i9vT2vPkDnIAACPQQ4swYLZ37wEpk1erbelvUzGr8TchLACrScfg/9qGVdjeawjt/97nd00kknUSyG77+hn8gYQOgI1NfX01NPPSXCq0JnvA8GQzT7ABVNhoIABHQo3AQjjQjIKqQ5W8eUKVOoqqrKCA2ugwAIeEigubmZXnzxRfrFL37hYavhbgriOdz+g/XuCEBAu+OH2gEhIKuQRraOgExAmBFZApxZY9myZXTjjTdGdoxOBgbR7IQWykaZAAR0lL0r2dhkFdEc1jFnzhz69re/jbAOyeY8husfAc6ssWbNGrryyiv96yRELUM4h8hZMDUnBCCgc4IZneSSgKxCWgnrGDhwINLe5XLCoa9IEWDhvG3bNho/fjweDkx5FuI5UlMcg/GIAAS0RyDRTPAIyCqkOazjqquuoqKiouA5BRaBQIAJcGaNO++8k5YvXx5gK3NnGoRz7lijp/ARgIAOn89gsQMCsopoDuv47W9/S2eccQbCOhzMFxSVk0BdXR398pe/pAULFsgJQDNqCGcNELwFAR0CENA6UHApegRkFdK33nor/fu//zshrCN6cxojck+gsbGRXnrpJWTWSKGEcHY/p9CCPAQgoOXxNUZKJG1sMK9GX3HFFQjrwG8BCBARMmukTwMI53QeeAcCdghAQNuhhDKRIiDrajSHdcydO5dGjBhB8Xg8Uj7FYEDADgF+QPDDDz+kcePG2Ske+TIQzpF3MQboIwEIaB/houlgE5BVSCthHQMGDEB8dLCnKKzziAAya2SChHjOZIIrIOCEAAS0E1ooG0kCsgppDuu4/PLLqbi4OJJ+xaBAgAns2bOHxo4di5R0qekA4YzfCxDwhgAEtDcc0UrICcgqojmsY/bs2WITFoR1hHwSw/w0ApyS7pFHHkFmjRQVCOe06YE3IOCaAAS0a4RoIEoEZBXSHNZx++23U1VVFcI6ojShJRwLMmukOx3COZ0H3oGAVwQgoL0iiXYiRUBWIc1hHZdddhmVlJREyp8YTPQJcGaN3//+90hJl3I1hHP05zxGmF8CEND55Y/eA05ARiE9evRomjZtGg0fPpwSiUTAPQTzZCfAwnnVqlXIrJGaCBDOsv9GYPy5IgABnSvS6Ce0BGQU0ewsDuu46667qKKiAmEdoZ290TUcmTUyfQvxnMkEV0DALwIQ0H6RRbuRIyCrkH7++edp1KhRIqxDVgaRm8whH9COHTvohhtuQGaNlB8hnEM+oWF+KAlAQIfSbTA6XwRkFZAsoDmjwXHHHUeFhYX5wo9+JSeAzBrpEwDCOZ0H3oFALglAQOeSNvqKDAFZhbQS1lFeXo7dDCMzm4M/EM6s8eyzz9Ljjz8efGNzYCGEcw4gowsQsCAAAW0BCLdBwIyArEKawzq+973vUWlpKcnKwGxe4J43BNra2qi6uhqZNVI4IZy9mVdoBQS8IAAB7QVFtCE9ARlFJId1PPzww3TCCScgrEP63wBvASCzRjpPCOd0HngHAkEgAAEdBC/AhkgQkFFEs+MeeOAB8UBXZWUlwjoiMZPzNwjOrLFhwwaRAYYfFMRBBPGMWQACwSQAAR1Mv8CqEBOQUUjzluBTpkyhCy+8UKxGx2KxEHsQpueaAIvErVu30vjx45FZIwUfwjnXsxD9gYAzAhDQznihNAjYIiCjiGYwHNYxY8YMOvLIIymZTNpihUJyE0BmjXT/Qzin88A7EAgqAQjooHoGdkWCgKxC+v7776cf//jHYhMW7GYYians+SDq6+tp5syZIruG542HsEEI5xA6DSZLTQACWmr3Y/C5IiCjkFbCOi644AKxGo2wjlzNtmD309zcTC+++CIya6TcBOEc7PkK60DAiAAEtBEZXAcBHwjIKKTVYR28CYuMDHyYSqFrkjNrvPvuuyLOOXTG+2AwhLMPUNEkCOSQAAR0DmGjKxBgArIKSCWsgzdhwW6G8vwuKJk1fvjDH8ozaIuRQjxbAMJtEAgBAQjoEDgJJkaTgIxCmsM6eDe5s846C2Ed0ZzWvaNikYjMGr04xAmEczoPvAOBMBOAgA6z92B76AnIKKLZaddccw3de++9dMQRRwghLSuH0E9ggwHs2bOH7r77bnrvvfcMSsh1GcJZLn9jtHIQgICWw88YZcAJyCogp0+fTmPHjqWSkhKEdQR8jtoxr66ujp588klk1kjBgnC2M2tQBgTCSQACOpx+g9URJSCjkFaHdXBsdDwej6h3ozsszqwxf/58mjx5cnQH6WBkEM4OYKEoCISUAAR0SB0Hs6NLQEYRzd5Uh3WwkEbau+DPcc6s8frrr9PEiRODb2wOLIRwzgFkdAECASEAAR0QR8AMENASkFVII6xDOxOC976zs5M+/fRTQmaNPt9APPexwBkIyEAAAloGL2OMoSYgo5BWwjrOPPNM8ZAhwjqCMYU5Jd2mTZvopz/9Ke3YsSMYRuXZCgjnPDsA3YNAnghAQOcJPLoFAScEZBTRzEcJ6xg2bBjS3jmZMD6U/fLLL+lnP/sZMmuk2EI4+zDJ0CQIhIgABHSInAVTQUBWIf3b3/6WLrnkEiouLhZCGjMhdwQ4swY/HPjKK6/krtMA9wThHGDnwDQQyCEBCOgcwkZXIOAVARmFNId1sJAeOXKkSHmXSCS8wol2dAg0NjbS3Llz6bHHHtO5K98lCGf5fI4Rg4AZAQhoMzq4BwIBJyCjkL711lvplltuoaqqKoR1+DA/W1tbacmSJciskWIL4ezDJEOTIBABAhDQEXAihiA3ARlFNHtcCesoKioSQlpWDl7Nfs6s8be//Y2uvPJKr5oMfTsQz6F3IQYAAr4RgID2DS0aBoHcEpBRQKrDOjikg/NH43BGgDNrrF+/nm677TZk1kihg3B2NodQGgRkJAABLaPXMebIEpBRRLMzlbCOgQMHitVopL2znuIsEr/66itk1lChgnBWwcApCICAKQEIaFM8uAkC4SQgq5BGWIe9+cqZNSZMmEDvv/++vQoRLwXhHHEHY3gg4AMBCGgfoKJJEAgKARmFNId1PPfcc3TMMceIkA6EdfTNRhbOzz//PDJrpJBAOPfNDZyBAAg4IwAB7YwXSoNA6AjIKKLZSRzWcfvtt1O/fv2kD+vgzBpvvfWWWHUO3QT2wWAIZx+gokkQkIwABLRkDsdw5SUgq5DmFddzzz2XOFsHr0bHYjFpJgFn1li5ciWNGzdOmjGbDRTC2YwO7oEACDghAAHthBbKgkAECMgopEePHk1TpkwRYR2crSOZTEbAk8ZDYOG8YcMGZNZQIYJ4VsHAKQiAgGsCENCuEaIBEAgfARlFNHtJHdbBq9FR282QRSIya6T/PkI4p/PAOxAAAW8IQEB7wxGtgEAoCcgqpDms45xzzhFhHbwaHYWwjn379tEdd9yBzBqp30QI51B+JMFoEAgNAQjo0LgKhoKAfwRkFNKjRo2ihx9+uDesg1ekw8iBM2vMmzePHn/8cf8mSIhahnAOkbNgKgiEmAAEdIidB9NBwEsCYRSPXoxfHdYRpt0MObPGn//8Z7rnnnu8wBD6NiCcQ+9CDAAEQkUAAjpU7oKxIOA/AVmFNId18Ko0j58zdgQ1rKOjo4Nef/11mjhxov+TIQQ9QDiHwEkwEQQiSAACOoJOxZBAwAsCMgppFtAzZsygww47jHg7cI6PDgoHzqzx6aefigchd+zY4YWLQ98GxHPoXYgBgEBoCUBAh9Z1MBwE/CcQFPHo/0jTe3jggQfoX//1X6msrCzvuxmySNy9e7ewB8K5x08QzunzFe9AAARyTwACOvfM0SMIhI6AjEKatwTn3NFKWAevRvOqdK4OFol79+6lu+66i957771cdRvofiCcA+0eGAcCUhGAgJbK3RgsCLgjIKOQ5k1YHn300d6wjlzsZsiZNTgm+7HHHnPnsIjUhnCOiCMxDBCIEAEI6Ag5E0MBgVwQkFFEM1cO67j++utFWIdf2TpaWlropZdeogcffDAXrgx8HxDOgXcRDAQBaQlAQEvregwcBNwRkFFIH3fccb1hHUzPq7CO9vZ2evPNN2nChAnunBKR2hDOEXEkhgECESYAAR1h52JoIOA3ARlFNDO98MILafr06SKsgxlku5uhklnjtttuo+3bt/vtrlC0D/EcCjfBSBCQngAEtPRTAABAwD0BWYU07/531VVXEYd0OAnrYJG4c+dO+slPfkLbtm1z74AItADhHAEnYgggIBEBCGiJnI2hgoDfBGQU0sOHD6cnnniCzjjjDJEzWhHTeqzb2tpow4YNNHPmTHrnnXf0ikh3DcJZOpdjwCAQCQIQ0JFwIwYBAsEhIKOIZvpjxowRuZpLS0uJhfJ3vvMdGjp0qHAMxzivXr2axo4dGxxH5dkSCOc8OwDdgwAIuCIAAe0KHyqDAAgYEZBVSKt5cBq6ESNGiAweGzduVN+S9hzCWVrXY+AgECkCENCRcicGAwLBIwAhHTyf5MMiCOd8UEefIAACfhGI+dUw2gUBEAABJgDhhHmAOYA5AAIgEDUCiagNCOMBARAIHgFFQGE1Oni+8dMixe9+9oG2QQAEQCAfBCCg80EdfYKApAQUQQUhHe0JoPg52qPE6EAABGQmgBAOmb2PsYNAnghAYOUJvM/dsl/hW58ho3kQAIFAEMAKdCDcACNAQD4CitDCanT4fa/4MvwjwQhAAARAwB4BrEDb44RSIAACPhHAqqVPYHPULMRzjkCjGxAAgUARgIAOlDtgDAjISwBCLFy+xxefcPkL1oIACHhLACEc3vJEayAAAi4IKCIaYR0uIPpcVfGRz92geRAAARAINAEI6EC7B8aBgJwEFJEGIR0c/ys+CY5FsAQEQAAE8kfg/wOAE0cjwSfH3AAAAABJRU5ErkJggg==;" parent="1" vertex="1">
          <mxGeometry x="498.5" y="332" width="103" height="82" as="geometry"/>
        </mxCell>
        <mxCell id="srwLFo3CpR1ze2gh4oJ3-29" value="" style="verticalLabelPosition=bottom;html=1;verticalAlign=top;align=center;strokeColor=none;fillColor=#00BEF2;shape=mxgraph.azure.virtual_machine;" parent="1" vertex="1">
          <mxGeometry x="510" y="222" width="80" height="42" as="geometry"/>
        </mxCell>
        <mxCell id="srwLFo3CpR1ze2gh4oJ3-31" value="" style="fontColor=#0066CC;verticalAlign=top;verticalLabelPosition=bottom;labelPosition=center;align=center;html=1;outlineConnect=0;fillColor=#CCCCCC;strokeColor=#6881B3;gradientColor=none;gradientDirection=north;strokeWidth=2;shape=mxgraph.networks.switch;rotation=-90;" parent="1" vertex="1">
          <mxGeometry x="520" y="300.5" width="305" height="29" as="geometry"/>
        </mxCell>
        <mxCell id="srwLFo3CpR1ze2gh4oJ3-32" value="" style="endArrow=classic;startArrow=classic;html=1;entryX=1.007;entryY=0.684;entryDx=0;entryDy=0;entryPerimeter=0;" parent="1" target="srwLFo3CpR1ze2gh4oJ3-36" edge="1">
          <mxGeometry width="50" height="50" relative="1" as="geometry">
            <mxPoint x="657" y="368" as="sourcePoint"/>
            <mxPoint x="622.12" y="368.16" as="targetPoint"/>
            <Array as="points">
              <mxPoint x="635" y="368"/>
            </Array>
          </mxGeometry>
        </mxCell>
        <mxCell id="srwLFo3CpR1ze2gh4oJ3-33" value="Network Switch" style="text;html=1;strokeColor=none;fillColor=none;align=center;verticalAlign=middle;whiteSpace=wrap;rounded=0;rotation=90;" parent="1" vertex="1">
          <mxGeometry x="579" y="305.5" width="246" height="20" as="geometry"/>
        </mxCell>
        <mxCell id="srwLFo3CpR1ze2gh4oJ3-35" value="" style="endArrow=classic;startArrow=classic;html=1;entryX=1.01;entryY=0.167;entryDx=0;entryDy=0;entryPerimeter=0;" parent="1" target="srwLFo3CpR1ze2gh4oJ3-36" edge="1">
          <mxGeometry width="50" height="50" relative="1" as="geometry">
            <mxPoint x="657" y="244" as="sourcePoint"/>
            <mxPoint x="623.74" y="244.32" as="targetPoint"/>
          </mxGeometry>
        </mxCell>
        <mxCell id="srwLFo3CpR1ze2gh4oJ3-37" value="PowerProtect Data Manager 19.x Software" style="text;html=1;strokeColor=none;fillColor=none;align=center;verticalAlign=middle;whiteSpace=wrap;rounded=0;" parent="1" vertex="1">
          <mxGeometry x="502.5" y="277" width="95" height="20" as="geometry"/>
        </mxCell>
        <mxCell id="srwLFo3CpR1ze2gh4oJ3-38" value="&lt;font style=&quot;font-size: 10px&quot;&gt;Data Domain Virtual Edition 96TB Max Capacity&lt;/font&gt;" style="text;html=1;strokeColor=none;fillColor=none;align=center;verticalAlign=middle;whiteSpace=wrap;rounded=0;" parent="1" vertex="1">
          <mxGeometry x="490" y="422" width="130" height="10" as="geometry"/>
        </mxCell>
        <mxCell id="srwLFo3CpR1ze2gh4oJ3-39" value="&lt;font style=&quot;font-size: 14px&quot;&gt;&lt;u&gt;&lt;b&gt;PowerOne Data Protection Solution - PowerProtect Data Manager - Software Based Protection&lt;/b&gt;&lt;/u&gt;&lt;/font&gt;" style="text;html=1;strokeColor=none;fillColor=none;align=center;verticalAlign=middle;whiteSpace=wrap;rounded=0;" parent="1" vertex="1">
          <mxGeometry x="110" y="30" width="670" height="20" as="geometry"/>
        </mxCell>
        <mxCell id="srwLFo3CpR1ze2gh4oJ3-40" value="" style="endArrow=classic;startArrow=classic;html=1;" parent="1" edge="1">
          <mxGeometry width="50" height="50" relative="1" as="geometry">
            <mxPoint x="440" y="413" as="sourcePoint"/>
            <mxPoint x="480" y="413" as="targetPoint"/>
          </mxGeometry>
        </mxCell>
        <mxCell id="srwLFo3CpR1ze2gh4oJ3-42" value="" style="endArrow=none;dashed=1;html=1;" parent="1" edge="1">
          <mxGeometry width="50" height="50" relative="1" as="geometry">
            <mxPoint x="439.5" y="482" as="sourcePoint"/>
            <mxPoint x="439.5" y="122" as="targetPoint"/>
          </mxGeometry>
        </mxCell>
        <mxCell id="srwLFo3CpR1ze2gh4oJ3-43" value="" style="endArrow=classic;startArrow=classic;html=1;" parent="1" edge="1">
          <mxGeometry width="50" height="50" relative="1" as="geometry">
            <mxPoint x="440" y="224.5" as="sourcePoint"/>
            <mxPoint x="480" y="224.5" as="targetPoint"/>
          </mxGeometry>
        </mxCell>
        <mxCell id="srwLFo3CpR1ze2gh4oJ3-44" value="" style="endArrow=classic;startArrow=classic;html=1;exitX=1;exitY=0.5;exitDx=0;exitDy=0;exitPerimeter=0;" parent="1" source="srwLFo3CpR1ze2gh4oJ3-3" edge="1">
          <mxGeometry width="50" height="50" relative="1" as="geometry">
            <mxPoint x="415" y="122" as="sourcePoint"/>
            <mxPoint x="440" y="122" as="targetPoint"/>
          </mxGeometry>
        </mxCell>
        <mxCell id="srwLFo3CpR1ze2gh4oJ3-45" value="" style="endArrow=classic;startArrow=classic;html=1;exitX=1;exitY=0.5;exitDx=0;exitDy=0;exitPerimeter=0;" parent="1" edge="1">
          <mxGeometry width="50" height="50" relative="1" as="geometry">
            <mxPoint x="410" y="182" as="sourcePoint"/>
            <mxPoint x="440" y="182" as="targetPoint"/>
          </mxGeometry>
        </mxCell>
        <mxCell id="srwLFo3CpR1ze2gh4oJ3-46" value="" style="endArrow=classic;startArrow=classic;html=1;exitX=1;exitY=0.5;exitDx=0;exitDy=0;exitPerimeter=0;" parent="1" edge="1">
          <mxGeometry width="50" height="50" relative="1" as="geometry">
            <mxPoint x="410" y="234" as="sourcePoint"/>
            <mxPoint x="440" y="234" as="targetPoint"/>
          </mxGeometry>
        </mxCell>
        <mxCell id="srwLFo3CpR1ze2gh4oJ3-47" value="" style="endArrow=classic;startArrow=classic;html=1;exitX=1;exitY=0.5;exitDx=0;exitDy=0;exitPerimeter=0;" parent="1" edge="1">
          <mxGeometry width="50" height="50" relative="1" as="geometry">
            <mxPoint x="410" y="360.5" as="sourcePoint"/>
            <mxPoint x="440" y="360.5" as="targetPoint"/>
          </mxGeometry>
        </mxCell>
        <mxCell id="srwLFo3CpR1ze2gh4oJ3-48" value="" style="endArrow=classic;startArrow=classic;html=1;exitX=1;exitY=0.5;exitDx=0;exitDy=0;exitPerimeter=0;" parent="1" edge="1">
          <mxGeometry width="50" height="50" relative="1" as="geometry">
            <mxPoint x="410" y="418" as="sourcePoint"/>
            <mxPoint x="440" y="418" as="targetPoint"/>
          </mxGeometry>
        </mxCell>
        <mxCell id="srwLFo3CpR1ze2gh4oJ3-49" value="" style="endArrow=classic;startArrow=classic;html=1;exitX=1;exitY=0.5;exitDx=0;exitDy=0;exitPerimeter=0;" parent="1" edge="1">
          <mxGeometry width="50" height="50" relative="1" as="geometry">
            <mxPoint x="410" y="482" as="sourcePoint"/>
            <mxPoint x="440" y="482" as="targetPoint"/>
          </mxGeometry>
        </mxCell>
        <mxCell id="srwLFo3CpR1ze2gh4oJ3-50" value="&lt;b&gt;&lt;font style=&quot;font-size: 14px&quot;&gt;PPDM Software stack&lt;/font&gt;&lt;/b&gt;" style="text;html=1;strokeColor=none;fillColor=none;align=center;verticalAlign=middle;whiteSpace=wrap;rounded=0;" parent="1" vertex="1">
          <mxGeometry x="480" y="186" width="150" height="20" as="geometry"/>
        </mxCell>
        <mxCell id="srwLFo3CpR1ze2gh4oJ3-52" value="" style="endArrow=classic;startArrow=classic;html=1;entryX=0.5;entryY=1;entryDx=0;entryDy=0;exitX=0.5;exitY=0;exitDx=0;exitDy=0;" parent="1" edge="1">
          <mxGeometry width="50" height="50" relative="1" as="geometry">
            <mxPoint x="597" y="332" as="sourcePoint"/>
            <mxPoint x="597" y="297" as="targetPoint"/>
          </mxGeometry>
        </mxCell>
        <mxCell id="srwLFo3CpR1ze2gh4oJ3-53" value="" style="endArrow=classic;startArrow=classic;html=1;entryX=0.5;entryY=1;entryDx=0;entryDy=0;exitX=0.5;exitY=0;exitDx=0;exitDy=0;" parent="1" edge="1">
          <mxGeometry width="50" height="50" relative="1" as="geometry">
            <mxPoint x="506" y="332" as="sourcePoint"/>
            <mxPoint x="506" y="297" as="targetPoint"/>
          </mxGeometry>
        </mxCell>
        <mxCell id="srwLFo3CpR1ze2gh4oJ3-57" value="" style="points=[];aspect=fixed;html=1;align=center;shadow=0;dashed=0;image;image=img/lib/allied_telesis/storage/Datacenter_Server_Storage_Unit_Large.svg;" parent="1" vertex="1">
          <mxGeometry x="520" y="502" width="80" height="82" as="geometry"/>
        </mxCell>
        <mxCell id="srwLFo3CpR1ze2gh4oJ3-58" value="" style="endArrow=classic;startArrow=classic;html=1;" parent="1" edge="1">
          <mxGeometry width="50" height="50" relative="1" as="geometry">
            <mxPoint x="549" y="414" as="sourcePoint"/>
            <mxPoint x="549" y="504" as="targetPoint"/>
          </mxGeometry>
        </mxCell>
        <mxCell id="srwLFo3CpR1ze2gh4oJ3-61" value="&lt;font style=&quot;font-size: 10px&quot;&gt;Physical Data Storage System PowerOne Native&lt;/font&gt;" style="text;html=1;strokeColor=none;fillColor=none;align=center;verticalAlign=middle;whiteSpace=wrap;rounded=0;rotation=0;" parent="1" vertex="1">
          <mxGeometry x="565" y="504" width="146" height="18" as="geometry"/>
        </mxCell>
        <mxCell id="srwLFo3CpR1ze2gh4oJ3-63" value="&lt;font style=&quot;font-size: 10px&quot;&gt;Default Storage system - within in PowerOne&lt;/font&gt;" style="text;html=1;strokeColor=none;fillColor=none;align=center;verticalAlign=middle;whiteSpace=wrap;rounded=0;rotation=0;" parent="1" vertex="1">
          <mxGeometry x="486.5" y="584" width="147" height="24" as="geometry"/>
        </mxCell>
      </root>
    </mxGraphModel>
  </diagram>
</mxfile>
